<svg width="631" height="617" viewBox="0 0 631 617" fill="none" xmlns="http://www.w3.org/2000/svg">
<g clip-path="url(#clip0)">
<path opacity="0.95" d="M315.516 99.6781H166.34C154.554 99.6781 145 109.227 145 121.005V270.088C145 281.867 154.554 291.415 166.34 291.415H315.516C327.302 291.415 336.857 281.867 336.857 270.088V121.005C336.857 109.227 327.302 99.6781 315.516 99.6781Z" fill="url(#paint0_linear)"/>
<path d="M285.344 247.765H196.516V252.149H285.344V247.765Z" fill="#96BFE6"/>
<path d="M272.763 261.582H209.098V265.966H272.763V261.582Z" fill="#96BFE6"/>
<path opacity="0.95" d="M605.858 166.179H393.563C379.678 166.179 368.422 177.428 368.422 191.304V449.069C368.422 462.946 379.678 474.195 393.563 474.195H605.858C619.744 474.195 631 462.946 631 449.069V191.304C631 177.428 619.744 166.179 605.858 166.179Z" fill="url(#paint1_linear)"/>
<path d="M508.301 347.89H487.477V351.743H508.301V347.89Z" fill="#4598E6"/>
<path d="M529.594 383.212H408.411V390.675H529.594V383.212Z" fill="#96BFE6"/>
<path d="M506.406 419.04H408.411V426.503H506.406V419.04Z" fill="#96BFE6"/>
<path d="M465.86 401.126H408.411V408.589H465.86V401.126Z" fill="#96BFE6"/>
<path d="M561.301 196.895V200.657H583.488V221.487H587.26V196.895H561.301ZM410.499 221.494H414.271V200.657H436.459V196.895H410.481L410.499 221.494ZM583.507 328.977V349.813H561.319V353.582H587.297V328.977H583.507ZM414.271 328.977H410.499V353.582H436.484V349.802H414.296L414.271 328.977Z" fill="#4598E6"/>
<path d="M575.519 427.052C571.127 427.052 566.833 425.75 563.18 423.311C559.528 420.872 556.681 417.405 555 413.35C553.319 409.294 552.879 404.831 553.736 400.525C554.593 396.22 556.709 392.265 559.815 389.161C562.921 386.057 566.878 383.943 571.186 383.086C575.495 382.23 579.96 382.669 584.019 384.349C588.077 386.029 591.546 388.874 593.986 392.524C596.426 396.174 597.729 400.466 597.729 404.856C597.722 410.74 595.38 416.382 591.216 420.543C587.053 424.704 581.408 427.045 575.519 427.052V427.052ZM575.519 386.956C571.977 386.956 568.514 388.006 565.569 389.973C562.623 391.94 560.328 394.735 558.972 398.006C557.617 401.277 557.262 404.875 557.953 408.348C558.644 411.82 560.35 415.009 562.855 417.512C565.36 420.016 568.551 421.72 572.025 422.411C575.499 423.102 579.101 422.747 582.373 421.392C585.646 420.038 588.443 417.743 590.411 414.8C592.379 411.856 593.43 408.396 593.43 404.856C593.424 400.11 591.535 395.561 588.177 392.205C584.82 388.85 580.268 386.962 575.519 386.956V386.956Z" fill="#4598E6"/>
<path d="M574.104 413.594L564.014 403.511L567.055 400.472L574.104 407.516L583.987 397.64L587.028 400.679L574.104 413.594Z" fill="#4598E6"/>
<path d="M588.89 600.155C588.89 609.465 457.065 617.011 294.452 617.011C131.84 617.011 0 609.454 0 600.155C0 590.856 131.826 583.299 294.438 583.299C457.05 583.299 588.89 590.835 588.89 600.155Z" fill="url(#paint2_linear)"/>
<path opacity="0.95" d="M305.59 106.846H176.271V217.732H305.59V106.846Z" fill="url(#paint3_linear)"/>
<path opacity="0.95" d="M479.121 28.6737H373.249C363.56 28.6737 355.706 36.523 355.706 46.2057V138.014C355.706 147.697 363.56 155.546 373.249 155.546H479.121C488.81 155.546 496.664 147.697 496.664 138.014V46.2057C496.664 36.523 488.81 28.6737 479.121 28.6737Z" fill="url(#paint4_linear)"/>
<path d="M431.239 131.551H420.062V133.619H431.239V131.551Z" fill="#4598E6"/>
<path d="M459.687 51.6184V53.6432H471.61V64.8247H473.633V51.6184H459.687ZM378.734 64.8247H380.76V53.6577H392.68V51.6184H378.734V64.8247ZM471.61 122.521V133.706H459.687V135.727H473.633V122.536L471.61 122.521ZM380.76 122.521H378.734V135.727H392.68V133.706H380.76V122.521Z" fill="#4598E6"/>
<path d="M248.396 226.339H233.465V229.102H248.396V226.339Z" fill="#4598E6"/>
<path d="M285.683 119.595V122.299H301.603V137.232H304.31V119.595H285.683ZM177.551 137.232H180.257V122.299H196.178V119.595H177.551V137.232ZM301.585 214.296V229.237H285.683V231.938H304.31V214.296H301.585ZM180.239 214.296H177.533V231.938H196.16V229.237H180.257L180.239 214.296Z" fill="#4598E6"/>
<path d="M579.007 313.466H554.099C552.458 301.546 550.461 287.94 550.461 287.94C550.461 287.94 549.454 299.169 548.232 313.466H448.531C447.622 300.608 446.527 290.99 446.134 290.79C445.56 290.506 442.006 301.91 439.052 313.466H412.07C419.01 283.589 431.956 235.653 439.438 232.766C450.092 228.673 493.536 215.292 493.536 215.292H518.325C518.325 215.292 562.381 227.855 566.48 241.509C569.736 252.407 576.923 288.296 579.007 313.466Z" fill="#E65353"/>
<path d="M507.071 134.931C507.071 134.931 530.219 138.566 526.713 174.772C523.207 210.978 502.757 208 501.39 207.964C500.022 207.928 480.882 208.626 479.387 164.43C479.369 164.43 478.718 131.751 507.071 134.931Z" fill="#EEA987"/>
<path d="M517.878 197.306C517.878 197.306 517.241 212.21 518.682 215.416C520.122 218.622 499.582 228.99 487.037 217.455C487.037 217.455 490.063 201.275 489.219 195.539C488.375 189.803 517.878 197.306 517.878 197.306Z" fill="#EEA987"/>
<path d="M527.055 164.546C527.055 164.546 529.601 161.842 530.521 164.583C531.442 167.324 526.589 179.559 526.906 180.112C526.906 180.112 526.444 181.173 525.836 180.588C525.229 180.003 527.055 164.546 527.055 164.546Z" fill="#EEA987"/>
<path d="M479.631 164.088C479.631 164.088 477.15 161.337 476.168 164.056C475.186 166.775 479.805 179.109 479.482 179.654C479.482 179.654 479.922 180.723 480.544 180.152C481.166 179.581 479.631 164.088 479.631 164.088Z" fill="#EEA987"/>
<path d="M527.055 170.101L523.741 174.528C523.741 174.528 523.836 164.819 523.305 163.3C522.774 161.78 521.959 157.12 521.515 156.029C521.071 154.939 501.633 149.486 484.469 157.618C484.469 157.618 485.225 164.597 483.577 165.219C481.93 165.841 482.741 176.589 482.741 176.589L480.016 173.518C480.016 173.518 475.844 145.669 476.874 142.765C477.903 139.86 481.188 122.408 516.405 132.772C516.405 132.772 527.382 130.449 529.587 138.025C531.791 145.6 527.055 170.101 527.055 170.101Z" fill="#D98B52"/>
<path d="M518.689 215.416C518.689 215.416 523.912 216.528 502.055 237.463C502.055 237.463 486.556 220.323 487.058 217.47C487.56 214.616 518.689 215.416 518.689 215.416Z" fill="#EEA987"/>
<path d="M502.048 237.463L508.013 247.656L525.709 217.633L518.045 212.29L502.048 237.463Z" fill="#B84343"/>
<path d="M502.048 237.463L487.575 214.445L479.369 219.713L494.082 247.656L502.048 237.463Z" fill="#B84343"/>
<path d="M497.563 301.23C497.741 304.625 497.821 308.787 497.829 313.466H497.01C497.01 308.809 496.923 304.654 496.745 301.27C495.41 275.733 501.593 244.66 501.63 237.372L502.43 237.532C502.39 244.82 496.221 275.802 497.563 301.23Z" fill="#B84343"/>
<path d="M491.409 203.704C491.409 203.704 496.908 209.52 504.678 207.968C512.447 206.415 515.895 202.879 515.895 202.879C515.895 202.879 512.829 210.563 503.845 211.265C494.861 211.966 491.409 203.704 491.409 203.704Z" fill="#C78D71"/>
<path d="M223.164 120.62H223.109C222.589 120.493 221.76 117.988 221.6 117.49C221.563 117.352 221.48 117.101 221.367 116.763C220.719 114.76 219.184 110.067 219.792 108.271C219.981 107.704 220.272 107.374 220.657 107.294C221.49 107.123 222.44 108.177 222.476 108.224L222.494 108.246V108.275C222.713 110.249 223.764 120.115 223.309 120.569C223.269 120.603 223.217 120.622 223.164 120.62V120.62ZM220.85 107.454C220.799 107.448 220.748 107.448 220.697 107.454C220.381 107.519 220.137 107.817 219.97 108.301C219.399 110.038 220.959 114.844 221.545 116.661C221.658 117.025 221.741 117.265 221.778 117.388C222.163 118.584 222.844 120.296 223.153 120.387C223.156 120.39 223.161 120.391 223.165 120.391C223.17 120.391 223.174 120.39 223.178 120.387C223.469 119.995 222.814 112.754 222.312 108.279C222.189 108.177 221.48 107.454 220.85 107.454Z" fill="#EEA886"/>
<path d="M240.372 81.2845C240.372 81.2845 253.103 79.9468 257.704 92.2479C262.305 104.549 266.619 108.57 267.161 115.033C269.343 141.162 281.561 135.251 278.128 150.315C274.694 165.379 272.308 167.658 272.308 167.658L243.122 161.936L213.55 162.031C213.55 162.031 225.12 156.258 222.545 143.961C219.97 131.663 213.55 111.503 217.176 97.7951C220.803 84.0871 232.755 82.3314 240.372 81.2845Z" fill="#16202E"/>
<path d="M255.933 120.62C255.904 120.62 255.876 120.614 255.85 120.603C255.823 120.591 255.8 120.575 255.78 120.554C255.325 120.1 256.38 110.234 256.595 108.261V108.231V108.21C256.635 108.162 257.588 107.119 258.413 107.279C258.802 107.359 259.093 107.69 259.279 108.257C259.872 110.053 258.351 114.746 257.704 116.748C257.591 117.112 257.511 117.348 257.475 117.476C257.311 117.977 256.485 120.482 255.962 120.609L255.933 120.62ZM256.798 108.326C256.311 112.815 255.645 120.042 255.936 120.434C255.94 120.437 255.944 120.439 255.949 120.439C255.954 120.439 255.958 120.437 255.962 120.434C256.267 120.358 256.947 118.617 257.333 117.432C257.369 117.297 257.453 117.043 257.566 116.705C258.155 114.887 259.715 110.067 259.141 108.344C258.977 107.846 258.733 107.563 258.413 107.497C257.737 107.33 256.918 108.166 256.798 108.326Z" fill="#EEA886"/>
<path d="M300.287 198.775H282.1C278.328 191.904 275.265 186.532 275.265 186.532C275.265 186.532 272.814 191.003 270.9 198.775H209.669C208.884 194.555 208.617 190.256 208.872 185.972C208.872 185.972 205.599 191.879 201.801 198.775H181.228C186.684 188.56 196.916 169.955 199.244 167.513C202.154 164.459 219.082 152.769 231.166 148.955C243.249 145.142 250.12 148.825 250.12 148.825C250.12 148.825 262.527 151.057 274.003 155.604C278.513 157.4 290.99 180.406 300.287 198.775Z" fill="#FAA146"/>
<path d="M242.053 88.4747C242.053 88.4747 258.93 90.9102 256.46 115.807C253.99 140.704 239.092 138.73 238.099 138.708C237.106 138.686 223.156 139.224 221.949 108.846C221.949 108.846 221.385 86.3772 242.053 88.4747Z" fill="#8E4F3A"/>
<path d="M249.549 134.291C249.549 134.291 248.505 147.243 251.004 151.122C253.503 155.001 248.869 160.268 239.332 158.469C229.794 156.669 230.344 151.26 230.344 151.26C230.344 151.26 233.017 143.263 232.235 136.872C231.453 130.482 249.549 134.291 249.549 134.291Z" fill="#8E4F3A"/>
<path d="M240.121 97.5006C240.121 97.5006 248.007 105.781 251.67 109.98C255.332 114.178 255.754 122.277 255.754 122.277C255.754 122.277 261.938 114.746 259.344 105.974C256.751 97.2026 250.658 80.1394 235.203 85.3812C219.748 90.623 219.177 113.699 220.992 125.138C220.992 125.138 227.929 99.8816 240.121 97.5006Z" fill="#16202E"/>
<path d="M255.474 149.981C255.474 149.981 243.773 179.603 236.658 184.754C236.658 184.754 227.314 154.539 227.968 150.115C227.968 150.13 242.063 144.593 255.474 149.981Z" fill="#8E4F3A"/>
<path d="M230.744 142.816C230.744 142.816 209.88 161.355 215.292 172.94C219.916 182.82 236.302 176.76 233.599 166.397C230.897 156.033 230.744 142.816 230.744 142.816Z" fill="#16202E"/>
<path d="M233.472 137.581C233.472 137.581 240.663 140.976 247.658 135.96C246.931 137.238 245.906 138.322 244.671 139.119C243.435 139.916 242.026 140.404 240.561 140.54C235.414 141.111 233.472 137.581 233.472 137.581Z" fill="#633029"/>
<path d="M418.661 69.0669C418.661 69.0669 411.75 95.0942 410.295 100.958C409.866 102.724 408.477 105.778 406.72 109.26C406.72 109.286 406.694 109.311 406.676 109.34C406.342 110.004 406.123 110.719 406.029 111.456C405.749 113.637 406.582 115.334 405.138 117.908L404.876 118.999H391.181C392.778 114.255 394.818 108.217 396.433 103.368C397.794 99.2637 398.87 95.9993 399.158 95.0542C400.005 92.2297 403.108 83.0875 405.749 77.0205C406.658 74.8831 410.208 72.7747 413.351 71.248C416.162 69.9284 418.661 69.0669 418.661 69.0669Z" fill="#323657"/>
<path d="M409.488 31.8762C409.488 31.8762 405.123 3.64963 428.515 4.16945C451.907 4.68927 451.594 18.648 451.179 32.5014C450.765 46.3548 441.799 45.3115 451.907 64.5812C462.015 83.8508 443.152 83.8472 443.152 83.8472L428.515 63.7451L409.488 31.8762Z" fill="#FCCCA2"/>
<path d="M425.958 6.8776C425.958 6.8776 410.113 9.37855 409.488 31.8762C408.862 54.3738 413.762 59.1649 427.624 54.4792C441.486 49.7936 445.862 26.2527 446.174 22.6067C446.487 18.9607 447.32 4.16945 425.958 6.8776Z" fill="#EEA886"/>
<path d="M453.777 85.1304C453.835 92.8732 444.93 111.394 443.555 117.119C443.392 117.784 443.217 118.399 443.043 118.977H399.809C399.587 116.309 399.376 114.026 399.271 112.739C398.907 108.511 394.64 99.4018 394.782 95.1596C394.931 90.8375 397.052 87.1079 400.023 82.4913C400.944 81.0627 401.911 79.6087 402.879 78.191C406.025 73.5744 409.168 69.3831 410.714 67.94C411.695 67.0191 412.75 66.179 413.867 65.4282V65.4282C414.874 64.7244 415.965 64.1504 417.115 63.7197L430.73 61.5386C430.73 61.5386 439.216 64.6103 444.101 65.7481C444.123 65.7408 453.635 67.1367 453.777 85.1304Z" fill="#E55353"/>
<path d="M413.875 65.4318L405.985 77.8638L398.71 89.3362C398.729 89.2744 399.212 87.5368 400.034 82.5059C400.191 81.5498 400.358 80.4775 400.54 79.2743C400.593 78.917 400.67 78.5636 400.769 78.2164V78.2164C403.886 71.0335 413.525 65.6172 413.864 65.4391L413.875 65.4318Z" fill="#E55353"/>
<path d="M436.535 44.3482C435.16 46.94 433.713 63.0254 433.713 63.0254C433.713 63.0254 414.337 70.3428 416.319 66.2061C417.217 64.3267 417.483 61.8876 417.501 59.7865C417.511 58.4807 417.44 57.1756 417.286 55.8787C417.235 55.4534 417.195 55.2099 417.195 55.2099C417.195 55.2099 437.91 41.7528 436.535 44.3482Z" fill="#EEA886"/>
<path d="M419.494 23.0211C419.494 23.0211 427.624 36.2492 435.022 41.4583C442.421 46.6674 438.659 50.8332 438.659 50.8332C438.659 50.8332 457.967 10.211 439.612 7.39742C421.258 4.58386 410.001 4.37666 409.477 31.8762C409.488 31.8762 417.828 22.8139 419.494 23.0211Z" fill="#FCCCA2"/>
<path d="M428.333 54.2175C425.361 58.6014 417.501 59.7828 417.501 59.7828C417.511 58.4771 417.44 57.1719 417.286 55.8751C422.335 56.8457 428.333 54.2175 428.333 54.2175Z" fill="#A77860"/>
<path d="M400.791 78.1183C400.791 78.1183 400.369 78.9871 400.023 82.4804L402.879 78.1764C402.879 78.1764 407.971 70.8735 409.721 68.976C410.987 67.6596 412.375 66.4668 413.867 65.4136C413.867 65.4136 403.839 70.2374 400.791 78.1183Z" fill="#EBEEFF"/>
<path d="M439.347 89.0091C439.347 89.0091 451.783 84.1344 455.461 83.8509C455.461 83.8509 452.962 63.8905 440.744 66.0062C428.526 68.1218 439.347 89.0091 439.347 89.0091Z" fill="#E55353"/>
<path d="M417.119 63.7088C417.119 63.7088 407.989 77.7366 411.081 78.9762C414.173 80.2158 430.901 77.344 437.998 64.0177C438.012 64.0032 427.391 58.5506 417.119 63.7088Z" fill="#EEA886"/>
<path d="M455.464 83.8509C454.831 94.8507 451.707 105.298 449.128 114.862C448.764 116.251 448.4 117.625 448.059 118.973H422.739C422.677 115.182 422.692 111.834 422.808 109.042C424.085 78.5073 433.767 62.451 433.767 62.451C433.767 62.451 436.859 63.4907 445.771 66.0098C451.871 67.7328 454.173 75.4865 455.013 80.1867V80.2448C455.229 81.4377 455.38 82.6415 455.464 83.8509V83.8509Z" fill="#323657"/>
<path d="M417.116 63.716C415.715 66.1513 414.458 68.6662 413.351 71.2479C410.35 78.1219 406.604 89.0054 406.287 100.994C406.189 104.844 405.421 111.081 404.257 118.959H399.205C398.797 113.669 397.867 108.434 396.426 103.328C395.735 100.87 395.099 99.0383 394.757 97.875C393.145 92.3969 398.299 85.1013 400.024 82.4877C401.748 79.874 405.883 67.8927 417.116 63.716Z" fill="#323657"/>
<path d="M463.528 118.973H449.943C449.943 118.09 449.637 116.647 449.139 114.862C446.669 106.09 439.358 89.0054 439.358 89.0054C439.358 89.0054 428.42 71.1389 438.787 66.5878C449.153 62.0366 453.613 74.7595 455.01 80.1867V80.2448C455.351 81.5426 461.524 105.054 463.528 118.973Z" fill="#323657"/>
<path d="M241.787 373.706C241.787 373.706 246.537 373.641 248.229 371.813C249.92 369.984 252.91 368.341 253.867 367.876C255.15 367.254 258.693 363.808 259.137 365.491C259.581 367.174 253.495 371.438 252.335 372.59C251.175 373.743 257.395 374.244 258.308 375.36C259.221 376.476 256.045 388.24 251.902 387.327C247.759 386.415 244.366 382.238 243.58 382.238C242.794 382.238 240.521 381.715 240.521 381.715L241.787 373.706Z" fill="#EEA886"/>
<path d="M257.424 374.881C257.424 374.881 269.791 378.657 270.3 379.726C270.809 380.795 270.468 381.58 269.289 381.282C268.111 380.984 257.18 378.047 257.18 378.047C257.18 378.047 270.697 385.43 271.304 386.171C271.668 386.604 271.068 388.149 270.413 388.058C269.758 387.967 255.863 381.591 255.863 381.591C255.863 381.591 268.467 388.498 268.783 389.337C269.056 390.064 268.212 391.38 267.234 390.948C266.255 390.515 254.11 384.899 254.11 384.899C254.11 384.899 262.891 390.65 262.756 391.595C262.673 392.173 262.211 393.525 259.999 391.958C257.788 390.392 252.121 387.367 252.121 387.367L257.424 374.881Z" fill="#EEA886"/>
<path d="M215.772 582.212C215.772 582.212 219.737 588.145 225.302 589.428C230.867 590.711 236.353 592.747 236.393 596.258C236.433 599.77 220.301 601.86 213.932 598.319C204.427 593.041 203.464 594.633 202.409 591.991C201.354 589.348 203.674 582.292 203.605 581.449C203.522 580.416 215.772 582.212 215.772 582.212Z" fill="#353A3D"/>
<path d="M215.154 579.286C215.154 579.286 215.881 582.15 215.772 582.212C215.663 582.274 203.231 583.753 203.605 581.452C203.911 579.588 204.333 577.563 204.333 577.563L215.154 579.286Z" fill="#81807E"/>
<path d="M137.693 581.82C137.693 581.82 140.523 587.494 145.36 589.428C150.529 591.492 154.672 593.866 154.577 597.287C154.483 600.707 141.945 604.172 132.819 597.61C127.057 593.463 125.227 593.441 124.304 590.831C123.38 588.221 125.911 581.434 125.875 580.613C125.831 579.598 137.693 581.82 137.693 581.82Z" fill="#353A3D"/>
<path d="M137.835 578.871C137.835 578.871 137.802 581.78 137.693 581.82C137.584 581.86 125.569 582.863 125.875 580.613C126.117 579.258 126.508 577.934 127.042 576.665L137.835 578.871Z" fill="#81807E"/>
<path d="M181.898 405.528C181.898 405.528 197.68 465.958 203.689 479.928C209.258 492.872 211.095 510.971 211.862 520.063C212.826 531.499 218.566 576.043 219.239 579.373C219.912 582.703 200.688 581.223 200.688 581.223C200.688 581.223 187.419 504.228 181.912 492.992C178.235 485.493 156.905 431.723 154.465 434.831C152.024 437.939 149.008 491.804 147.19 500.746C145.371 509.688 139.835 580.355 139.835 580.355C139.835 580.355 127.428 582.172 124.114 579.38C124.114 579.38 122.605 519.038 123.751 502.273C124.191 495.882 116.258 425.652 126.428 397.378C131.796 382.431 181.898 405.528 181.898 405.528Z" fill="#2D3133"/>
<path d="M93.9824 362.194C93.9824 362.885 95.2882 365.647 97.3725 369.624C100.421 363.532 102.829 358.526 103.6 356.687C106.168 350.624 119.404 336.727 119.404 336.727C119.403 336.736 119.403 336.746 119.404 336.756C119.403 336.762 119.403 336.768 119.404 336.774C119.404 336.774 119.404 336.774 119.404 336.774C119.406 336.793 119.406 336.813 119.404 336.832C119.404 336.865 119.404 336.901 119.437 336.948L119.459 337.021C119.459 337.043 119.459 337.057 119.459 337.079C120.186 339.762 124.605 356.534 124.765 364.797C124.947 373.79 127.293 390.432 127.293 390.432L130.058 390.82L136.172 391.682L136.9 391.784L138.678 392.035L154.897 394.314L160.648 395.121L161.427 395.233L164.7 395.695L173.794 396.971L176.107 397.295H176.129L177.864 397.538L180.261 397.876C180.33 397.789 182.596 394.688 182.243 387.8C182.021 383.354 181.487 375.001 181.709 367.25C181.709 367.21 181.709 367.171 181.709 367.131C181.709 367.032 181.709 366.938 181.709 366.836C181.712 366.803 181.712 366.771 181.709 366.738V366.738C181.85 362.478 182.225 358.443 183.018 355.378C183.553 353.392 183.958 351.372 184.229 349.333C184.229 349.235 184.251 349.144 184.262 349.053C184.302 348.69 184.342 348.326 184.375 347.992C184.698 344.766 184.726 341.517 184.458 338.286V338.286C184.622 338.65 185.808 342.979 187.368 348.33C189.991 357.381 193.661 369.333 195.229 369.908C197.502 370.744 234.349 381.653 242.307 382.769C243.227 382.9 243.762 382.896 243.809 382.732C243.857 382.569 243.882 382.496 243.922 382.369C244.886 379.185 246.217 373.772 246.428 372.896L246.461 372.776L245.035 372.347L204.944 360.351L186.615 307.529C186.23 307.224 181.73 305.047 178.442 303.484C175.092 301.888 171.047 299.547 167.388 297.54C165.522 296.522 163.751 295.588 162.23 294.89L161.998 294.785L157.796 292.869L156.705 292.764C153.184 292.429 142.243 291.404 138.58 291.19C138.278 291.19 138.024 291.157 137.827 291.153C137.631 291.15 137.536 291.153 137.464 291.153C136.998 291.179 134.746 291.968 131.778 293.094L131.44 293.222L131.022 293.382L130.236 293.683L128.61 294.319L128.032 294.548C122.099 296.9 115.301 299.808 113.69 300.968C112.624 301.731 109.303 307.991 105.447 315.73C100.486 331.612 94.2007 355.924 94.0042 361.921C93.9861 362.016 93.9824 362.107 93.9824 362.194Z" fill="#DECBC4"/>
<path d="M180.323 397.891C180.323 397.891 181.545 399.345 181.898 405.524C181.898 405.524 131.724 399.676 126.421 397.367C126.421 397.367 126.213 390.562 127.341 390.442C128.574 390.315 180.323 397.891 180.323 397.891Z" fill="#495055"/>
<path d="M137.54 289.452C137.693 297.322 152.94 301.626 152.94 301.626C152.94 301.626 159.317 293.629 157.793 292.869C157.196 292.571 156.952 291.379 156.88 290.041C156.832 288.851 156.86 287.658 156.963 286.471C157.011 285.915 157.054 285.555 157.054 285.555C157.054 285.555 154.872 283.258 152.104 280.524C147.262 275.737 140.602 269.619 140.595 272.047C140.595 272.203 140.613 272.358 140.65 272.509C141.821 277.998 137.54 289.452 137.54 289.452Z" fill="#EEA886"/>
<path d="M138.802 391.653C138.802 391.653 137.711 398.56 137.613 400.352L135.292 399.89C135.292 399.89 135.932 392.591 136.307 391.366L138.802 391.653Z" fill="#353A3D"/>
<path d="M176.14 397.087C176.14 397.087 177.016 403.358 177.038 405.728L174.583 405.408C174.583 405.408 174.081 397.574 173.801 396.757L176.14 397.087Z" fill="#353A3D"/>
<path d="M143.411 277.922C143.44 277.969 144.087 278.936 145.193 280.324C147.532 283.265 151.933 288.1 156.88 290.041C156.832 288.851 156.86 287.658 156.963 286.471C157.474 286.458 157.981 286.397 158.48 286.29C157.478 284.604 156.37 282.983 155.163 281.437L152.104 280.524L143.411 277.922Z" fill="#A77860"/>
<path d="M140.483 272.153C141.803 275.021 143.054 277.1 143.392 277.922C143.866 278.805 144.466 279.615 145.175 280.324C147.684 283.029 152.355 286.595 156.945 286.471C157.455 286.458 157.963 286.397 158.462 286.29C160.313 285.882 162.503 285.025 163.707 282.654C173.219 264.046 166.333 248.826 166.333 248.826C166.333 248.826 140.326 241.476 136.256 249.302C133.419 254.799 137.383 265.417 140.483 272.153Z" fill="#EEA886"/>
<path d="M166.352 248.837C166.352 248.837 168.767 248.703 169.363 244.13C169.96 239.557 168.774 238.354 168.774 238.354C168.774 238.354 158.04 233.861 154.185 233.264C150.329 232.668 140.846 232.119 138.624 234.657C138.624 234.657 133.226 233.402 131.757 242.363C129.421 256.573 139.708 270.371 139.708 270.371C139.708 270.371 139.621 261.087 141.668 259.859C143.716 258.63 145.484 261.553 145.484 261.553L149.674 262.305C149.674 262.305 143.312 248.583 150.951 248.074C158.589 247.565 161.979 249.633 166.352 248.837Z" fill="#252E3B"/>
<path d="M145.357 257.867C144.956 253.777 137.554 252.214 138.049 256.504C138.544 260.793 142.192 264.908 143.869 264.762C145.546 264.617 145.658 261 145.357 257.867Z" fill="#EEA886"/>
<path d="M97.3723 369.624C100.599 375.771 105.684 384.815 110.707 393.583C110.045 394.819 109.402 396.042 108.779 397.251C107.335 399.994 106.065 402.825 104.978 405.728C103.832 408.931 102.243 417.142 105.287 418.665L121.335 427.52C121.335 427.52 121.448 427.208 121.663 426.626C122.194 425.172 123.347 422.104 124.936 418.113C124.987 417.986 125.147 417.604 125.387 417.044C125.704 416.292 126.166 415.227 126.69 413.991C126.926 413.438 127.173 412.86 127.417 412.264L128.308 410.185C128.745 409.167 129.181 408.156 129.585 407.222L131.534 402.689C131.585 402.573 131.64 402.456 131.695 402.326C132.218 401.196 132.753 400.066 133.299 398.934C134.142 397.186 135.012 395.444 135.899 393.739C135.987 393.565 136.078 393.376 136.169 393.223C136.325 392.922 136.485 392.624 136.641 392.329C136.743 392.147 136.841 391.966 136.94 391.784L137.005 391.664L137.125 391.449C141.766 382.99 146.99 375.917 148.659 365.546C148.819 364.542 148.972 363.548 149.118 362.561C149.358 360.915 149.579 359.29 149.783 357.694C149.86 357.09 149.936 356.498 150.005 355.905C150.842 348.999 151.34 342.819 151.744 338.526C152.999 325.145 144.796 310.656 138.5 301.706C136.416 298.72 134.17 295.852 131.771 293.113L131.738 293.08L131.4 293.207L130.982 293.367L130.196 293.669L128.57 294.305L127.992 294.534C121.892 296.922 109.056 300.452 107.441 301.611C106.506 302.277 104.422 308.384 102.014 316.097C97.0522 331.979 94.106 355.927 93.9641 361.9C93.9641 361.994 93.9641 362.085 93.9641 362.172C93.9823 362.885 95.299 365.647 97.3723 369.624ZM121.761 366.636C121.761 369.621 120.79 373.038 119.295 376.68C119.258 376.771 119.222 376.862 119.182 376.953C118.153 374.772 117.185 372.66 116.316 370.711C113.926 365.368 112.286 361.202 112.195 359.551C111.605 348.959 119.415 336.763 119.415 336.763C119.413 336.769 119.413 336.775 119.415 336.781C119.417 336.8 119.417 336.82 119.415 336.839C119.428 336.877 119.439 336.916 119.448 336.956L119.469 337.028C119.469 337.05 119.469 337.065 119.469 337.086C121.103 343.39 121.761 366.636 121.761 366.636Z" fill="#3C4145"/>
<path d="M152.246 406.553L106.499 426.91C105.883 427.184 105.22 427.334 104.547 427.352C103.873 427.37 103.203 427.255 102.574 427.014C101.945 426.773 101.37 426.411 100.881 425.947C100.393 425.484 99.9999 424.929 99.7257 424.314L87.2022 396.193C86.9281 395.578 86.778 394.915 86.7603 394.242C86.7427 393.569 86.8579 392.899 87.0994 392.27C87.3409 391.642 87.704 391.067 88.1679 390.579C88.6318 390.09 89.1874 389.698 89.803 389.425L135.55 369.068C136.166 368.794 136.829 368.644 137.503 368.626C138.176 368.609 138.846 368.724 139.475 368.965C140.104 369.207 140.68 369.569 141.168 370.033C141.657 370.497 142.049 371.052 142.323 371.667L154.846 399.788C155.399 401.03 155.435 402.44 154.948 403.709C154.46 404.977 153.488 406.001 152.246 406.553V406.553Z" fill="#B3A5A0"/>
<path d="M162.11 294.988C162.11 294.988 164.256 302.128 167.032 319.943C167.126 320.543 167.221 321.15 167.315 321.761L167.348 321.979C167.41 322.39 167.475 322.808 167.537 323.233L167.559 323.378C167.603 323.666 167.643 323.949 167.686 324.24C167.788 324.945 167.893 325.663 167.999 326.392C169.236 335.065 170.971 349.824 172.641 364.724C173.961 376.469 176.965 388.519 177.922 397.513C177.922 397.519 177.922 397.525 177.922 397.531C178.213 399.806 178.63 402.063 179.17 404.292C179.239 404.594 179.308 404.896 179.381 405.205C182.069 416.557 187.288 432.624 187.288 432.624L188.809 431.221L193.312 427.066C193.82 426.599 194.185 425.998 194.364 425.332C194.543 424.665 194.529 423.962 194.323 423.304C191.828 415.252 183.342 386.76 181.785 366.727C182.545 359.686 184.498 350.242 184.204 348.882C184.226 348.93 184.24 348.98 184.258 349.031C185.153 351.514 186.142 354.215 187.139 356.843C189.82 363.903 192.559 370.446 193.686 370.86C196.233 371.794 241.841 385.244 242.172 383.369C242.205 383.179 242.242 382.976 242.289 382.765C242.336 382.554 242.376 382.336 242.423 382.107C242.987 379.537 244.009 375.851 244.722 373.383C244.828 373.019 244.926 372.656 245.017 372.365C245.315 371.336 245.512 370.682 245.512 370.682L206.955 358.032L187.492 307.166C187.11 306.864 182.141 304.192 178.853 302.629C175.43 300.997 171.098 298.994 167.254 297.217C165.435 296.366 163.693 295.574 162.23 294.905L162.11 294.988Z" fill="#3C4145"/>
<path d="M135.994 312.619L143.411 316.799L140.243 320.027L148.678 365.557C150.398 354.884 151.184 344.749 151.766 338.537C153.704 317.853 133.048 294.519 131.76 293.098C130.771 293.462 129.698 293.887 128.588 294.327L135.994 312.619Z" fill="#51565C"/>
<path d="M161.998 294.807C161.998 294.807 164.766 303.851 167.996 326.432C169.236 335.105 170.971 349.864 172.644 364.764L174.368 322.124L170.836 318.3L173.975 314.378L167.257 297.206C165.42 296.355 163.693 295.563 162.23 294.894L161.998 294.807Z" fill="#51565C"/>
<path d="M131.345 293.251L137.529 289.452C137.529 289.452 137.7 292.822 152.93 301.626L148.605 313.8L131.345 293.251Z" fill="#F5E2D9"/>
<path d="M156.992 291.15C156.992 291.15 156.752 294.785 152.94 301.626L161.379 312.618L161.997 294.785L156.992 291.15Z" fill="#F5E2D9"/>
<path d="M152.919 301.626C152.919 301.626 151.282 308.169 151.871 309.987C151.871 309.987 155.468 311.295 158.055 309.66C158.055 309.667 156.221 305.09 152.919 301.626Z" fill="#FAA146"/>
<path d="M161.372 395.935C162.288 391.322 161.419 377.498 161.372 376.909L160.59 376.96C160.59 377.102 161.492 391.268 160.59 395.782L161.372 395.935Z" fill="#AD9F99"/>
<path d="M154.97 393.809C154.97 393.809 162.35 394.688 164.791 395.299L164.471 403.569L154.806 402.536L154.97 393.809Z" fill="#69737A"/>
<path d="M156.585 309.082C156.585 309.082 164.817 329.86 163.474 353.117C162.081 377.232 159.797 385.979 159.797 385.979L154.723 392.34L152.482 384.521C152.482 384.521 159.295 353.775 154.897 323.858C154.101 318.438 152.919 308.166 152.919 308.166L156.585 309.082Z" fill="#FAA146"/>
<path d="M131.844 407.215C131.844 407.215 133.608 410.745 135.375 411.333C137.143 411.922 139.718 414.79 139.718 414.79L127.279 421.334C127.279 421.334 123.965 414.863 123.82 410.741C123.674 406.619 131.844 407.215 131.844 407.215Z" fill="#EEA886"/>
<path d="M133.022 407.546L133.848 409.2C133.848 409.2 125.948 414.976 123.816 415.343L123.089 413.136L133.022 407.546Z" fill="#DECBC4"/>
<path d="M133.855 407.618C133.855 407.618 127.926 412.511 122.943 414.765L100.591 375.593L114.857 367.799C114.857 367.799 133.455 404.674 133.855 407.618Z" fill="#3C4145"/>
<path d="M183.975 338.351C184.247 343.935 184.207 348.893 184.207 348.893C184.207 348.922 184.207 349.071 184.229 349.322C184.229 349.224 184.251 349.133 184.262 349.042C185.157 351.525 186.146 354.226 187.143 356.854C187.363 354.021 187.439 351.178 187.368 348.337C186.968 332.706 182.043 324.487 182.043 324.487C183.174 327.214 183.716 333.066 183.975 338.351Z" fill="#2D3133"/>
<path d="M378.203 286.769C378.203 286.769 377.97 283.894 378.308 282.553C378.894 280.233 378.032 276.482 380.949 274.661C383.866 272.84 392.25 280.477 392.909 282.596C393.567 284.716 390.432 288.358 383.877 291.408C377.323 294.458 378.203 286.769 378.203 286.769Z" fill="#EEA886"/>
<path d="M380.054 275.417C382.087 272.434 384.28 269.563 386.623 266.816C389.897 262.999 394.506 258.721 395.477 259.546C396.932 260.778 392.774 263.857 389.781 267.86C387.027 271.542 388.195 271.28 388.195 271.28C388.195 271.28 387.856 271.338 391.65 267.91C395.731 264.224 400.267 260.437 401.075 261.087C402.075 261.894 402.133 262.08 400.875 263.661C401.795 262.909 402.137 263.054 402.49 263.41C404.308 265.257 399.19 271.607 397.15 274.13C398.728 272.204 400.096 270.96 400.493 272.814C400.944 274.934 393.269 283.585 390.821 286.951C388.151 290.604 380.054 275.417 380.054 275.417Z" fill="#EEA886"/>
<path d="M281.976 581.136C281.976 581.136 289.956 585.862 293.568 587.603C297.18 589.344 311.22 589.857 312.606 591.173C313.992 592.489 313.487 596.683 311.151 597.112C308.816 597.541 291.764 599.083 286.053 597.752C280.343 596.422 269.714 598.661 267.354 597.861C264.993 597.061 266.517 584.357 267.43 581.503C268.343 578.65 281.976 581.136 281.976 581.136Z" fill="#181929"/>
<path d="M282.642 575.942L281.976 581.136C281.976 581.136 271.311 583.128 268.078 581.5L268.878 576.105L282.642 575.942Z" fill="#22243B"/>
<path d="M325.439 398.527C325.323 402.122 324.668 409.927 323.904 418.12C323.737 419.938 323.54 421.784 323.38 423.602C322.315 434.631 321.242 444.831 321.242 444.831C319.896 453.61 317.117 468.851 314.007 480.375C313.112 483.701 312.188 486.718 311.264 489.179C310.366 491.574 309.446 493.447 308.584 494.566C301.974 503.007 286.818 577.81 286.818 577.81L266.125 577.65C266.125 577.65 270.675 526.988 275.251 514.148C280.343 499.804 289.218 480.477 287.018 466.645C285.639 457.964 283.86 430.334 283.86 430.334C283.86 430.334 282.133 399.283 290.258 376.535C292.284 370.878 325.439 398.527 325.439 398.527Z" fill="#292C47"/>
<path d="M340.123 583.07C340.123 583.07 348.046 587.879 351.636 589.675C355.226 591.471 369.259 592.143 370.63 593.477C372.001 594.811 371.441 598.995 369.11 599.395C366.778 599.795 349.701 601.133 344.012 599.737C338.323 598.341 327.662 600.464 325.316 599.621C322.969 598.777 324.639 586.109 325.585 583.263C326.53 580.416 340.123 583.07 340.123 583.07Z" fill="#181929"/>
<path d="M340.851 577.894L340.123 583.077C340.123 583.077 329.433 584.942 326.218 583.263L327.083 577.875L340.851 577.894Z" fill="#22243B"/>
<path d="M316.116 503.701C315.578 487.154 314.116 476.158 309.853 466.601C306.277 458.571 303.215 433.358 303.215 433.358C303.215 433.358 293.517 403.816 295.482 379.748C295.973 373.736 333.456 388.836 333.456 388.836C334.278 392.34 336.784 403.376 337.672 411.551C342.764 458.284 340.847 488.732 340.847 488.732C337.937 499.052 345.274 580.246 345.274 580.246H324.177C324.177 580.246 318.644 551.361 318.066 533.396C318.066 533.407 315.909 506.562 316.116 503.701Z" fill="#292C47"/>
<path d="M315.647 289.579C315.647 289.579 325.468 305.683 328.349 314.661C331.23 323.64 328.909 349.777 329.415 355.029C330.99 371.322 333.285 389.257 333.285 389.257L300.334 410.294C296.123 400.155 292.427 389.809 289.262 379.297C284.104 362.107 283.689 346.629 283.737 336.287C283.889 303.847 301.432 285.53 301.432 285.53L315.647 289.579Z" fill="#CFBEB6"/>
<path d="M327.756 246.383C327.756 246.383 334.511 253.61 332.605 255.511C331.026 257.082 337.239 264.283 338.123 265.493C339.006 266.704 335.365 268.71 334.765 269.793C334.165 270.877 334.518 282.215 331.39 283.381C328.262 284.548 312.475 283.312 307.456 280.255C302.436 277.198 294.361 259.535 294.929 251.058C295.496 242.581 315.873 233.784 327.756 246.383Z" fill="#EEA886"/>
<path d="M321.365 280.931C321.365 280.931 321.249 281.895 321.096 283.389C321.038 284.014 320.962 284.726 320.892 285.508C320.856 285.97 320.816 286.46 320.769 286.962C320.769 287.097 320.74 287.231 320.729 287.366C320.729 287.598 320.692 287.827 320.671 288.067C320.594 289.158 320.518 290.285 320.46 291.401C320.314 294.28 320.296 297.035 320.605 298.565C321.434 302.767 303.335 285.046 303.335 285.046C304.285 275.346 304.549 265.59 304.124 255.853C303.375 240.404 321.365 280.931 321.365 280.931Z" fill="#EEA886"/>
<path d="M329.142 247.972C329.142 247.972 332.339 240.436 322.482 235.205C310.875 229.044 298.574 244.508 296.94 245.42C295.307 246.333 287.887 254.671 295.151 265.733C304.31 279.692 303.826 279.223 303.826 279.223C303.826 279.223 304.746 268.928 304.684 266.94C304.575 263.305 314.109 262.88 314.109 262.88C314.109 262.88 310.195 257.674 314.545 255.337C318.896 252.999 323.984 247.459 329.142 247.972Z" fill="#3A3F47"/>
<path d="M309.104 261.56C308.409 260.586 305.863 256.285 302.589 260.062C299.316 263.839 308.085 270.902 308.813 270.833C309.54 270.764 314.942 269.757 309.104 261.56Z" fill="#EEA886"/>
<path d="M335.082 396.204C335.082 396.204 333.441 388.501 333.125 387.349L284.937 395.346L285.432 401.573C285.432 401.573 320.15 399.497 335.082 396.204Z" fill="#23263D"/>
<path d="M280.649 362.267C280.649 362.267 288.051 394.216 276.458 431.49C275.04 436.041 308.551 430.763 308.551 430.763L280.649 362.267Z" fill="#FAA146"/>
<path d="M323.213 428.44C323.213 428.44 299.414 433.66 292.728 431.301C292.728 431.301 282.998 395.939 279.608 360.053C279.342 357.276 279.12 354.506 278.943 351.743C277.048 322.542 284.486 292.92 301.433 285.552C301.909 285.875 325.774 306.904 325.323 326.152C325.29 327.453 325.272 328.762 325.261 330.071C325.261 332.437 325.261 334.796 325.315 337.177C325.468 344.502 325.919 351.805 326.567 358.897C326.632 359.624 326.705 360.377 326.778 361.107C326.89 362.299 327.014 363.485 327.141 364.659C327.309 366.229 327.486 367.784 327.673 369.322C331.528 401.431 323.213 428.44 323.213 428.44Z" fill="#FAA146"/>
<path d="M322.235 303.644C325.318 316.819 327.385 330.211 328.418 343.702C329.848 362.379 331.757 375.582 331.757 375.582L334.616 384.83L335.795 375.913C335.795 375.913 334.744 351.812 333.347 342.008C331.936 332.125 331.317 319.576 323.409 303.298L322.235 303.644Z" fill="#D44040"/>
<path d="M321.736 303.658C322.103 303.985 322.554 304.203 323.038 304.287C323.806 304.403 324.897 303.196 320.99 298.024L321.736 303.658Z" fill="#D44040"/>
<path d="M303.546 282.873C303.546 282.873 314.629 293.302 321.223 295.595L322.482 305.588L301.433 285.537L303.546 282.873Z" fill="#EDDAD3"/>
<path d="M310.995 323.255C306.63 321.703 288.473 312.895 293.303 302.615C298.134 292.335 310.577 297.802 319.947 301.982C329.768 306.344 352.894 319.794 354.724 318.555C356.553 317.315 364.545 305.854 366 303.287C367.454 300.721 376.184 284.428 377.006 283.2C377.828 281.971 390.501 292.651 390.501 292.651C390.501 292.651 367.713 333.102 361.58 339.544C355.448 345.985 310.995 323.255 310.995 323.255Z" fill="#FAA146"/>
<path d="M314.007 480.375C313.112 483.701 312.188 486.718 311.264 489.179L304.048 446.158C305.87 450.236 314.007 480.375 314.007 480.375Z" fill="#181929"/>
<path d="M325.315 337.163L304.448 320.114C309.98 323.077 323.573 329.282 325.275 330.056C325.246 332.423 325.264 334.793 325.315 337.163Z" fill="#8F5C28"/>
<path d="M321.096 283.389C321.038 284.014 320.962 284.726 320.892 285.508C320.856 285.97 320.816 286.46 320.769 286.962C313.858 286.5 308.5 280.99 308.173 280.651C310.995 282.887 321.096 283.389 321.096 283.389Z" fill="#A77860"/>
<g opacity="0.95">
<path opacity="0.95" d="M592.28 124.855H603.243L599.89 117.897H588.923L592.28 124.855Z" fill="url(#paint5_linear)"/>
<path opacity="0.95" d="M587.148 124.855H589.763L586.406 117.897H583.794L587.148 124.855Z" fill="url(#paint6_linear)"/>
<path opacity="0.95" d="M549.272 116.57H593.666L592.193 113.092H547.795L549.272 116.57Z" fill="url(#paint7_linear)"/>
</g>
<path d="M310.846 0H294.085C293.519 0 293.059 0.458952 293.059 1.0251V4.64202C293.059 5.20817 293.519 5.66712 294.085 5.66712H310.846C311.413 5.66712 311.872 5.20817 311.872 4.64202V1.0251C311.872 0.458952 311.413 0 310.846 0Z" fill="url(#paint8_linear)"/>
<path d="M310.846 13.588H294.085C293.519 13.588 293.059 14.0469 293.059 14.6131V18.23C293.059 18.7962 293.519 19.2551 294.085 19.2551H310.846C311.413 19.2551 311.872 18.7962 311.872 18.23V14.6131C311.872 14.0469 311.413 13.588 310.846 13.588Z" fill="url(#paint9_linear)"/>
<path d="M310.846 27.1724H294.085C293.519 27.1724 293.059 27.6313 293.059 28.1975V31.8144C293.059 32.3805 293.519 32.8395 294.085 32.8395H310.846C311.413 32.8395 311.872 32.3805 311.872 31.8144V28.1975C311.872 27.6313 311.413 27.1724 310.846 27.1724Z" fill="url(#paint10_linear)"/>
<path d="M323.97 0H320.667C320.1 0 319.641 0.458952 319.641 1.0251V4.64202C319.641 5.20817 320.1 5.66712 320.667 5.66712H323.97C324.536 5.66712 324.995 5.20817 324.995 4.64202V1.0251C324.995 0.458952 324.536 0 323.97 0Z" fill="url(#paint11_linear)"/>
<path d="M323.97 13.588H320.667C320.1 13.588 319.641 14.0469 319.641 14.6131V18.23C319.641 18.7962 320.1 19.2551 320.667 19.2551H323.97C324.536 19.2551 324.995 18.7962 324.995 18.23V14.6131C324.995 14.0469 324.536 13.588 323.97 13.588Z" fill="url(#paint12_linear)"/>
<path d="M323.97 27.1724H320.667C320.1 27.1724 319.641 27.6313 319.641 28.1975V31.8144C319.641 32.3805 320.1 32.8395 320.667 32.8395H323.97C324.536 32.8395 324.995 32.3805 324.995 31.8144V28.1975C324.995 27.6313 324.536 27.1724 323.97 27.1724Z" fill="url(#paint13_linear)"/>
<path d="M239.481 326.963H259.163L253.139 314.476H233.457L239.481 326.963Z" fill="url(#paint14_linear)"/>
<path d="M230.271 326.963H234.963L228.94 314.476H224.248L230.271 326.963Z" fill="url(#paint15_linear)"/>
</g>
<defs>
<linearGradient id="paint0_linear" x1="254.634" y1="443.762" x2="239.67" y2="172.375" gradientUnits="userSpaceOnUse">
<stop stop-color="#D1D7E0"/>
<stop offset="1" stop-color="#EBEBFF"/>
</linearGradient>
<linearGradient id="paint1_linear" x1="361106" y1="440291" x2="361106" y2="203549" gradientUnits="userSpaceOnUse">
<stop stop-color="#D1D7E0"/>
<stop offset="1" stop-color="#EBEBFF"/>
</linearGradient>
<linearGradient id="paint2_linear" x1="0" y1="600.144" x2="588.876" y2="600.144" gradientUnits="userSpaceOnUse">
<stop offset="0.01" stop-color="#0088FF"/>
<stop offset="1" stop-color="#4598E6"/>
</linearGradient>
<linearGradient id="paint3_linear" x1="85834.9" y1="105921" x2="85834.9" y2="43603.7" gradientUnits="userSpaceOnUse">
<stop stop-color="#D1D7E0"/>
<stop offset="1" stop-color="#EBEBFF"/>
</linearGradient>
<linearGradient id="paint4_linear" x1="165514" y1="60819.5" x2="165514" y2="20653" gradientUnits="userSpaceOnUse">
<stop stop-color="#D1D7E0"/>
<stop offset="1" stop-color="#EBEBFF"/>
</linearGradient>
<linearGradient id="paint5_linear" x1="23774.8" y1="2441.04" x2="24338.6" y2="2441.04" gradientUnits="userSpaceOnUse">
<stop stop-color="#D1D7E0"/>
<stop offset="1" stop-color="#EBEBFF"/>
</linearGradient>
<linearGradient id="paint6_linear" x1="10164" y1="2441.04" x2="10261.9" y2="2441.04" gradientUnits="userSpaceOnUse">
<stop stop-color="#D1D7E0"/>
<stop offset="1" stop-color="#EBEBFF"/>
</linearGradient>
<linearGradient id="paint7_linear" x1="69630.3" y1="1212.04" x2="75415.1" y2="1212.04" gradientUnits="userSpaceOnUse">
<stop stop-color="#D1D7E0"/>
<stop offset="1" stop-color="#EBEBFF"/>
</linearGradient>
<linearGradient id="paint8_linear" x1="15450.1" y1="44.1469" x2="16423.1" y2="44.1469" gradientUnits="userSpaceOnUse">
<stop stop-color="#D1D7E0"/>
<stop offset="1" stop-color="#EBEBFF"/>
</linearGradient>
<linearGradient id="paint9_linear" x1="15450.1" y1="269.572" x2="16423.1" y2="269.572" gradientUnits="userSpaceOnUse">
<stop stop-color="#D1D7E0"/>
<stop offset="1" stop-color="#EBEBFF"/>
</linearGradient>
<linearGradient id="paint10_linear" x1="15450.1" y1="494.993" x2="16423.1" y2="494.993" gradientUnits="userSpaceOnUse">
<stop stop-color="#D1D7E0"/>
<stop offset="1" stop-color="#EBEBFF"/>
</linearGradient>
<linearGradient id="paint11_linear" x1="5024.74" y1="44.1469" x2="5103.55" y2="44.1469" gradientUnits="userSpaceOnUse">
<stop stop-color="#D1D7E0"/>
<stop offset="1" stop-color="#EBEBFF"/>
</linearGradient>
<linearGradient id="paint12_linear" x1="5024.74" y1="269.572" x2="5103.55" y2="269.572" gradientUnits="userSpaceOnUse">
<stop stop-color="#D1D7E0"/>
<stop offset="1" stop-color="#EBEBFF"/>
</linearGradient>
<linearGradient id="paint13_linear" x1="5024.74" y1="494.993" x2="5103.55" y2="494.993" gradientUnits="userSpaceOnUse">
<stop stop-color="#D1D7E0"/>
<stop offset="1" stop-color="#EBEBFF"/>
</linearGradient>
<linearGradient id="paint14_linear" x1="16731.9" y1="11331.1" x2="18548.5" y2="11331.1" gradientUnits="userSpaceOnUse">
<stop stop-color="#D1D7E0"/>
<stop offset="1" stop-color="#EBEBFF"/>
</linearGradient>
<linearGradient id="paint15_linear" x1="6830.57" y1="11331.1" x2="7146.26" y2="11331.1" gradientUnits="userSpaceOnUse">
<stop stop-color="#D1D7E0"/>
<stop offset="1" stop-color="#EBEBFF"/>
</linearGradient>
<clipPath id="clip0">
<rect width="631" height="617" fill="white"/>
</clipPath>
</defs>
</svg>
