<svg width="197" height="155" viewBox="0 0 197 155" fill="none" xmlns="http://www.w3.org/2000/svg">
<path opacity="0.18" d="M25.6201 17.8631C27.9048 14.5434 30.44 12.1333 33.1817 10.9106C54.7962 1.27936 61.1019 25.9585 117.158 6.10533C121.509 4.54849 125.945 3.23901 130.444 2.18314C162.253 -5.16214 176.471 7.54071 180.931 17.8631C182.744 22.0511 182.951 25.8374 182.072 27.7542C178.753 34.9607 181.777 46.7096 188.095 80.3791C194.412 114.049 166.48 125.216 144.76 130.505C130.839 133.893 124.059 138.548 120.984 141.454C117.41 144.874 113.189 147.543 108.57 149.304C77.3217 160.985 62.1455 150.486 43.5202 135.594C39.4078 132.319 35.1244 128.816 30.4813 125.298C6.09863 106.866 9.87498 40.7406 25.6201 17.8631Z" fill="#0088FF"/>
<rect x="3" y="23" width="194" height="108" rx="10" fill="#0088FF"/>
<path d="M43.9028 92.68L37.8628 115H30.3028L26.7828 100.52L23.1428 115H15.6228L9.54281 92.68H16.3828L19.5428 108.64L23.3028 92.68H30.5428L34.3428 108.56L37.4628 92.68H43.9028ZM78.5513 92.68L72.5113 115H64.9513L61.4313 100.52L57.7913 115H50.2713L44.1913 92.68H51.0313L54.1913 108.64L57.9513 92.68H65.1913L68.9913 108.56L72.1113 92.68H78.5513ZM113.2 92.68L107.16 115H99.5997L96.0797 100.52L92.4397 115H84.9197L78.8397 92.68H85.6797L88.8397 108.64L92.5997 92.68H99.8397L103.64 108.56L106.76 92.68H113.2ZM119.008 115.32C117.808 115.32 116.821 114.973 116.048 114.28C115.301 113.56 114.928 112.68 114.928 111.64C114.928 110.573 115.301 109.68 116.048 108.96C116.821 108.24 117.808 107.88 119.008 107.88C120.181 107.88 121.141 108.24 121.888 108.96C122.661 109.68 123.048 110.573 123.048 111.64C123.048 112.68 122.661 113.56 121.888 114.28C121.141 114.973 120.181 115.32 119.008 115.32Z" fill="white"/>
<path d="M171.922 84.7317C173.052 81.2816 173.763 77.7214 174.055 74.0511H181C180.526 77.7948 179.323 81.355 177.391 84.7317H171.922ZM171.922 56.2683H177.391C179.323 59.645 180.526 63.2052 181 66.9489H174.055C173.763 63.2786 173.052 59.7184 171.922 56.2683ZM166.016 45.3123C168.021 46.3767 169.88 47.6613 171.594 49.1662H168.75C167.875 47.698 166.964 46.4134 166.016 45.3123ZM156.555 66.9489V56.2683H165.195C166.18 59.6083 166.781 63.1685 167 66.9489H156.555ZM156.555 43C158.706 44.1011 160.62 46.1565 162.297 49.1662H156.555V43ZM140.805 84.7317C139.82 81.3917 139.219 77.8315 139 74.0511H149.445V84.7317H140.805ZM140.805 56.2683H149.445V66.9489H139C139.219 63.1685 139.82 59.6083 140.805 56.2683ZM149.445 43V49.1662H143.703C145.38 46.1565 147.294 44.1011 149.445 43ZM134.406 49.1662C136.12 47.6613 137.979 46.3767 139.984 45.3123C139.036 46.4134 138.125 47.698 137.25 49.1662H134.406ZM125 66.9489C125.474 63.2052 126.677 59.645 128.609 56.2683H134.078C132.948 59.7184 132.237 63.2786 131.945 66.9489H125ZM134.078 84.7317H128.609C126.677 81.355 125.474 77.7948 125 74.0511H131.945C132.237 77.7214 132.948 81.2816 134.078 84.7317ZM137.25 91.8338C138.125 93.302 139.036 94.5866 139.984 95.6877C137.979 94.6233 136.12 93.3387 134.406 91.8338H137.25ZM149.445 91.8338V98C147.294 96.8622 145.38 94.8068 143.703 91.8338H149.445ZM156.555 74.0511H167C166.781 77.8315 166.18 81.3917 165.195 84.7317H156.555V74.0511ZM162.297 91.8338C160.62 94.8068 158.706 96.8622 156.555 98V91.8338H162.297ZM171.594 91.8338C169.917 93.3387 168.057 94.6233 166.016 95.6877C166.964 94.5866 167.875 93.302 168.75 91.8338H171.594Z" fill="white"/>
<path d="M67 10C29.9959 10 0 39.9959 0 77C0 114.004 29.9959 144 67 144C104.004 144 134 114.004 134 77C134 39.9959 104.004 10 67 10ZM113.351 50.2H91.8101C90.8081 42.6613 89.5455 35.1595 88.0246 27.7081C98.6634 32.2905 107.544 40.177 113.351 50.2ZM73.7938 23.8824C74.2494 26.2408 76.3867 37.537 78.1153 50.2H55.8713C57.6133 37.537 59.7439 26.2408 60.1995 23.8824C62.444 23.601 64.6952 23.4 67 23.4C69.3048 23.4 71.556 23.601 73.7938 23.8824ZM80.4 77C80.4 81.0066 80.1119 85.6162 79.663 90.4H54.337C53.8881 85.6162 53.6 81.0066 53.6 77C53.6 72.9934 53.8881 68.3838 54.337 63.6H79.663C80.1119 68.3838 80.4 72.9934 80.4 77ZM45.9754 27.7081C44.4545 35.1595 43.1919 42.6613 42.1899 50.2H20.6494C26.4564 40.177 35.3366 32.2905 45.9754 27.7081ZM15.1554 63.6H40.7628C40.4278 68.0756 40.2 72.6048 40.2 77C40.2 81.3952 40.4211 85.9244 40.7695 90.4H15.1621C14.0499 86.112 13.4 81.6364 13.4 77C13.4 72.3636 14.0566 67.888 15.1621 63.6H15.1554ZM20.6494 103.8H42.1899C43.4495 113.341 45.0039 121.555 45.9754 126.292C35.3366 121.71 26.4564 113.823 20.6494 103.8ZM60.2062 130.118C58.54 121.384 57.099 112.608 55.8847 103.8H78.1287C76.9035 112.607 75.4603 121.382 73.8005 130.118C71.5694 130.406 69.3115 130.6 67.0067 130.6C64.7019 130.6 62.4507 130.399 60.2129 130.118H60.2062ZM88.0246 126.299C89.5448 118.845 90.8074 111.341 91.8101 103.8H113.351C107.544 113.823 98.6634 121.71 88.0246 126.292V126.299ZM118.845 90.4H93.2372C93.5722 85.9244 93.8 81.3952 93.8 77C93.8 72.6048 93.5789 68.0756 93.2305 63.6H118.825C119.943 67.888 120.6 72.3636 120.6 77C120.6 81.6364 119.95 86.112 118.838 90.4H118.845Z" fill="white" fill-opacity="0.1"/>
</svg>
