<svg width="214" height="155" viewBox="0 0 214 155" fill="none" xmlns="http://www.w3.org/2000/svg">
<g clip-path="url(#clip0)">
<path opacity="0.18" d="M34.1133 32.454C27.7895 33.7937 21.2162 35.2476 16.1395 39.2485C11.8526 42.6237 5.1728 48.8549 3.14886 53.9177C-5.42496 75.3035 4.26865 101.326 23.0843 114.635C31.9335 120.895 42.9626 123.925 50.9154 131.293C55.9454 135.953 59.4685 142.122 64.8206 146.406C72.641 152.661 83.1998 154.045 93.1922 154.714C100.134 155.184 107.347 155.387 113.788 152.749C118.443 150.843 122.387 147.575 126.259 144.353L151.905 122.951C156.025 119.516 159.878 114.046 165.243 114.082C213.532 114.427 216.788 57.6382 142.676 32.4851C136.144 30.2679 131.665 24.1042 125.528 20.9445C112.852 14.4148 98.2637 16.5308 85.4783 21.0484C69.2452 26.7992 50.9596 28.8736 34.1133 32.454Z" fill="#0088FF"/>
<path opacity="0.05" d="M202.412 124.068C204.434 124.101 207.037 124.605 207.349 126.599C207.518 127.638 206.923 128.647 206.278 129.486C202.249 134.749 195.571 137.41 188.983 138.124C182.394 138.838 175.753 137.838 169.175 137.028C159.669 135.855 150.125 135.076 140.543 134.692C133.731 134.417 126.565 134.245 120.699 130.776C119.61 130.135 118.54 129.333 118.017 128.18C116.978 125.888 118.62 123.097 120.875 121.983C123.131 120.869 125.781 120.978 128.296 121.113C152.993 122.442 177.673 124.068 202.412 124.068Z" fill="#000405"/>
<path d="M202.498 32.8174C202.498 32.8174 193.709 44.1763 192.041 46.0794C188.998 49.5377 187.037 54.0735 187.037 54.0735L182.62 72.8552L177.683 71.5389L166.951 68.6829C166.951 68.6829 170.765 58.4171 168.917 55.3015C166.454 51.1474 168.585 48.5511 169.146 46.7674C170.185 43.4623 164.877 37.4207 164.877 37.4207L161.476 22.1985L166.61 21.5131L170.336 33.8533L176.72 39.5471L181.266 39.7885C181.266 39.7885 184.696 40.4947 187.19 39.342C189.575 38.2359 198.001 28.7412 198.001 28.7412L201.438 31.8568L202.498 32.8174Z" fill="#0088FF"/>
<path d="M160.39 52.0795V119.729C160.39 120.577 160.223 121.416 159.898 122.199C159.573 122.982 159.097 123.693 158.497 124.292C157.897 124.891 157.184 125.367 156.401 125.691C155.617 126.015 154.777 126.181 153.929 126.181H52.6823C51.8339 126.181 50.9938 126.014 50.21 125.689C49.4262 125.365 48.7141 124.889 48.1143 124.29C47.5145 123.69 47.0387 122.978 46.7143 122.195C46.3899 121.411 46.223 120.572 46.2234 119.724V52.0795C46.2227 51.2315 46.3893 50.3918 46.7136 49.6083C47.0379 48.8247 47.5136 48.1127 48.1135 47.5131C48.7134 46.9134 49.4256 46.4377 50.2096 46.1133C50.9936 45.7889 51.8338 45.6221 52.6823 45.6224H153.929C154.777 45.6224 155.618 45.7895 156.402 46.1139C157.185 46.4384 157.898 46.9141 158.498 47.5137C159.098 48.1133 159.574 48.8251 159.898 49.6085C160.223 50.3919 160.39 51.2315 160.39 52.0795Z" fill="#0088FF"/>
<path d="M158.639 47.6865H47.8003L48.6992 46.9984C48.7408 46.9625 48.7841 46.9287 48.8292 46.8972L101.556 6.50892L103.221 5.23413L156.865 46.3286L158.639 47.6865Z" fill="#0088FF"/>
<path d="M160.39 52.0795L159.042 53.0531L149.224 60.1592L101.556 94.6616L55.7118 59.3803L46.2234 52.0795L46.3455 50.8255C46.5766 49.6497 47.1329 48.5623 47.9511 47.6865C48.1808 47.4366 48.4311 47.2065 48.6994 46.9985C48.7409 46.9625 48.7843 46.9287 48.8293 46.8972C49.9422 46.0676 51.2939 45.6204 52.6823 45.6224H153.929C155.534 45.6233 157.082 46.2211 158.271 47.2995C159.459 48.3778 160.204 49.8596 160.359 51.4564C160.38 51.6634 160.39 51.8714 160.39 52.0795Z" fill="#0088FF"/>
<path opacity="0.61" d="M48.6992 46.9933C48.4322 47.2027 48.182 47.4328 47.951 47.6813H47.8003L48.6992 46.9933Z" fill="url(#paint0_linear)"/>
<path opacity="0.61" d="M160.39 52.0794L159.042 53.0557L149.224 60.1592L101.556 94.6616L55.7118 59.3829L46.2234 52.0794L46.3455 50.828C46.5767 49.6516 47.1329 48.5633 47.9511 47.6865C48.1822 47.438 48.4324 47.2079 48.6994 46.9985L48.8293 46.8998L101.556 6.50892L103.221 5.23413L156.865 46.3286C157.832 46.8209 158.66 47.5491 159.27 48.4459C159.881 49.3427 160.256 50.379 160.359 51.4589C160.38 51.6651 160.39 51.8722 160.39 52.0794Z" fill="url(#paint1_linear)"/>
<path d="M149.224 47.0816V60.1618L131.632 72.8838L127.597 75.8124L101.556 94.6616L77.0631 75.8124L73.2724 72.8941L55.7117 59.3933V47.0816C55.7117 46.0645 56.116 45.0892 56.8356 44.37C57.5553 43.6508 58.5314 43.2468 59.5491 43.2468H145.389C146.406 43.2475 147.381 43.6518 148.1 44.3709C148.82 45.09 149.224 46.065 149.224 47.0816Z" fill="white"/>
<path d="M136.332 58.5495H66.9616C66.5744 58.5495 66.203 58.3958 65.9291 58.1221C65.6553 57.8485 65.5015 57.4773 65.5015 57.0904C65.5015 56.8987 65.5392 56.709 65.6126 56.532C65.686 56.3549 65.7935 56.1941 65.9291 56.0586C66.0647 55.9231 66.2257 55.8156 66.4028 55.7423C66.58 55.669 66.7699 55.6312 66.9616 55.6312H136.332C136.523 55.6312 136.713 55.669 136.89 55.7423C137.068 55.8156 137.229 55.9231 137.364 56.0586C137.5 56.1941 137.607 56.3549 137.681 56.532C137.754 56.709 137.792 56.8987 137.792 57.0904C137.792 57.4773 137.638 57.8485 137.364 58.1221C137.09 58.3958 136.719 58.5495 136.332 58.5495Z" fill="#68E1FD" fill-opacity="0.5"/>
<path d="M136.332 67.1822H66.9616C66.5744 67.1822 66.203 67.0284 65.9291 66.7548C65.6553 66.4812 65.5015 66.11 65.5015 65.723C65.5015 65.3361 65.6553 64.9649 65.9291 64.6913C66.203 64.4176 66.5744 64.2639 66.9616 64.2639H136.332C136.719 64.2639 137.09 64.4176 137.364 64.6913C137.638 64.9649 137.792 65.3361 137.792 65.723C137.792 66.11 137.638 66.4812 137.364 66.7548C137.09 67.0284 136.719 67.1822 136.332 67.1822Z" fill="#68E1FD" fill-opacity="0.5"/>
<path d="M131.632 72.8942L127.597 75.8124H77.063L73.2698 72.8942H131.632Z" fill="url(#paint2_linear)"/>
<path opacity="0.05" d="M101.556 94.6616L59.2424 126.186H144.742L101.556 94.6616Z" fill="#000405"/>
<path d="M65.057 23.4187C62.9265 18.8518 54.9243 19.6021 54.9243 19.6021C59.8608 16.6917 58.915 9.29995 58.8553 8.86377C61.0143 15.3078 68.4684 13.885 69.1361 13.7448C64.1866 14.9651 65.057 23.4187 65.057 23.4187Z" fill="#0088FF"/>
<path d="M51.1831 32.7889C49.8295 29.8862 44.7397 30.364 44.7397 30.364C47.9614 28.4505 47.2314 23.5253 47.2314 23.5253V23.5538C48.6136 27.6274 53.3421 26.7239 53.763 26.6357C50.6297 27.4145 51.1831 32.7889 51.1831 32.7889Z" fill="#0088FF"/>
<path d="M187.471 24.0679C188.098 23.564 188.892 23.3138 189.695 23.3669C190.282 23.343 190.858 23.5414 191.305 23.9225C191.65 24.3097 191.869 24.7922 191.934 25.3063C192.061 25.9437 192.109 26.5941 192.077 27.2432C192.02 28.4349 191.711 29.6967 192.225 30.7741C192.348 31.0301 192.513 31.2636 192.714 31.4648C192.946 31.725 193.27 31.8858 193.618 31.9139C193.791 31.9216 193.961 31.8672 194.097 31.7605C194.233 31.6539 194.327 31.502 194.361 31.3323C194.188 31.7172 193.929 32.0572 193.604 32.3262C193.279 32.5952 192.896 32.7861 192.485 32.8842C192.075 32.9823 191.647 32.9849 191.235 32.8918C190.824 32.7988 190.439 32.6126 190.11 32.3475L190.562 33.264C190.188 33.1673 189.826 33.0298 189.482 32.8538C188.377 32.254 187.759 31.0364 187.465 29.8057C187.206 28.6763 187.154 27.5106 186.909 26.376C186.72 25.5062 186.767 24.6962 187.471 24.0679Z" fill="#3F3D56"/>
<path d="M187.138 25.3141C187.362 25.3068 187.586 25.3412 187.798 25.4153C187.974 25.4882 188.126 25.6079 188.238 25.7612C188.35 25.9146 188.418 26.0958 188.434 26.2851C188.444 26.4753 188.398 26.6642 188.302 26.8288C188.206 26.9934 188.064 27.1265 187.894 27.212C187.672 27.3033 187.433 27.3449 187.193 27.334C186.974 27.334 186.753 27.334 186.535 27.3132C186.473 27.3134 186.411 27.2982 186.356 27.2691C186.3 27.2233 186.258 27.1632 186.234 27.0951C186.092 26.8123 185.984 26.5132 185.914 26.2046C185.735 25.2491 186.379 25.3063 187.138 25.3141Z" fill="#0088FF"/>
<path d="M182.911 34.4297C182.911 34.4297 182.869 35.18 182.817 36.1562C182.773 36.9793 182.719 37.9737 182.674 38.7993C182.599 40.1959 181.998 41.5125 180.993 42.4861C180.406 43.0858 179.006 44.2048 177.938 43.8076C177.418 43.6155 177.4 42.9612 177.509 42.5691C177.75 41.8544 177.884 41.1082 177.907 40.3545C177.924 39.7444 177.869 39.1343 177.743 38.5371C177.073 36.8676 182.911 34.4297 182.911 34.4297Z" fill="url(#paint3_linear)"/>
<path d="M182.911 34.4297C182.911 34.4297 182.869 35.18 182.817 36.1562C182.407 37.0701 182.022 37.8153 181.812 38.1866C181.388 38.9369 179.647 40.1182 177.915 40.3545C177.932 39.7443 177.877 39.1343 177.751 38.5371C177.073 36.8676 182.911 34.4297 182.911 34.4297Z" fill="url(#paint4_linear)"/>
<path d="M177.826 24.4885C177.061 24.535 176.314 24.7384 175.631 25.0861C174.948 25.4338 174.344 25.9183 173.856 26.5094C173.369 27.1006 173.008 27.7857 172.797 28.5221C172.586 29.2585 172.529 30.0304 172.63 30.7898C172.804 33.0582 173.386 35.2765 174.35 37.3377C176.169 40.4533 180.778 37.8907 181.508 36.6081C182.238 35.3255 185.039 29.5409 183.862 27.9027C183.051 26.7966 180.804 24.3691 177.826 24.4885Z" fill="url(#paint5_linear)"/>
<path d="M176.189 21.3234C178.145 20.7526 180.231 20.8135 182.15 21.4974C184.038 22.214 185.667 23.6887 186.387 25.5762C187.006 27.3254 186.947 29.243 186.221 30.9506C185.49 32.6443 184.325 34.1156 182.843 35.2163C182.461 34.048 183.638 33.0095 184.096 31.8697C184.202 31.659 184.225 31.4163 184.161 31.1894C183.994 30.7662 183.36 30.7195 182.999 30.9947C182.638 31.2699 182.48 31.7347 182.347 32.1683C182.698 30.3119 182.958 28.131 181.643 26.7705C180.864 25.9657 179.687 25.6645 178.564 25.6541C177.533 25.6511 176.513 25.8594 175.566 26.2662C174.619 26.6731 173.766 27.2697 173.059 28.0193C172.646 28.4633 172.058 29.0085 171.534 28.7022C171.37 28.5906 171.242 28.4348 171.165 28.253C169.614 25.1842 173.687 22.0089 176.189 21.3234Z" fill="#3F3D56"/>
<path d="M178.699 24.7532C177.4 24.1821 176.036 23.7147 174.625 23.7147C173.215 23.7147 171.752 24.1924 170.819 25.2517C170.332 25.842 169.978 26.53 169.78 27.2691C169.623 27.7315 169.561 28.2206 169.598 28.7074C169.655 29.0605 169.742 29.4079 169.858 29.746C170.102 30.5872 170.206 31.5634 169.673 32.2696C169.575 32.4104 169.445 32.527 169.295 32.6107C169.145 32.6943 168.977 32.7428 168.806 32.7525C168.634 32.7555 168.466 32.6958 168.335 32.5844C168.204 32.473 168.118 32.3177 168.094 32.1476C167.865 32.794 168.239 33.5522 168.834 33.8923C169.141 34.0482 169.477 34.1374 169.82 34.1539C170.164 34.1705 170.507 34.1141 170.827 33.9884C171.096 33.9035 171.346 33.7668 171.562 33.5859C171.776 33.3802 171.952 33.1385 172.082 32.8719C172.625 31.8879 172.898 30.7949 173.303 29.733C173.708 28.6711 174.296 27.6559 175.254 27.0588C176.014 26.6444 176.867 26.4325 177.733 26.4435C178.593 26.4149 179.458 26.485 180.315 26.4071C181.173 26.3292 180.552 25.8203 180.183 25.5529C179.717 25.2361 179.22 24.9681 178.699 24.7532Z" fill="#3F3D56"/>
<path d="M213.595 15.4454C213.816 15.6168 211.747 17.2265 211.747 17.2265C211.747 17.2265 210.781 18.8907 209.799 19.3529C208.817 19.815 201.438 31.8541 201.438 31.8541L198.526 29.2163L204.808 20.7705C204.808 20.7705 206.886 16.7903 206.655 15.0586C206.655 15.0586 206.78 13.0127 207.406 13.9629C207.848 14.6406 207.565 15.7077 208.087 15.8219C208.145 15.8271 208.203 15.8144 208.253 15.7856C208.686 15.5228 209.084 15.2051 209.435 14.8405C210.474 13.8513 211.716 12.4753 211.716 12.4753C211.716 12.4753 212.397 12.1871 212.311 12.4753C212.226 12.7634 210.976 14.7081 210.906 14.8119C211.023 14.7055 212.94 12.9945 213.244 13.1269C213.548 13.2593 211.758 15.2299 211.654 15.3442C211.766 15.2663 213.81 13.8435 213.964 13.9707C214.252 14.2122 212.405 15.8141 212.252 15.9361C212.368 15.8738 213.384 15.2793 213.595 15.4454Z" fill="url(#paint6_linear)"/>
<path d="M211.402 16.6787C211.247 16.7291 211.082 16.7425 210.921 16.7176C210.397 16.6778 209.872 16.6691 209.347 16.6917C208.993 16.7072 208.263 16.9513 208.245 16.4035C208.245 16.2581 208.282 16.1153 208.274 15.9699C208.274 15.9076 208.258 15.8453 208.248 15.7829C208.681 15.5202 209.078 15.2025 209.43 14.8379C209.589 14.891 209.74 14.9671 209.877 15.0638C210.223 15.2871 210.564 15.5077 210.9 15.7258C211.082 15.8453 211.264 15.9647 211.438 16.0945C211.515 16.1426 211.577 16.212 211.615 16.2944C211.632 16.3734 211.619 16.4557 211.58 16.5263C211.541 16.5969 211.478 16.651 211.402 16.6787Z" fill="url(#paint7_linear)"/>
<path d="M160.668 1.92643C160.388 1.95759 161.297 4.4137 161.297 4.4137C161.297 4.4137 161.24 6.33757 161.83 7.24628C162.419 8.15499 162.336 22.0842 162.336 22.0842L166.202 21.565L165.324 11.0733C165.324 11.0733 165.659 6.5972 166.769 5.24972C166.769 5.24972 167.74 3.44528 166.709 3.923C165.976 4.26571 165.651 5.31982 165.15 5.14327C165.098 5.1174 165.055 5.07558 165.028 5.02384C164.792 4.57391 164.617 4.09456 164.508 3.59846C164.142 2.20943 163.82 0.386818 163.82 0.386818C163.82 0.386818 163.404 -0.210334 163.337 0.0778569C163.269 0.366048 163.292 2.67417 163.295 2.80658C163.251 2.65859 162.529 0.186902 162.191 0.142765C161.853 0.0986274 162.344 2.71312 162.375 2.8637C162.318 2.73908 161.336 0.454323 161.133 0.480286C160.762 0.534808 161.5 2.87668 161.554 3.05064C161.481 2.9364 160.933 1.90047 160.668 1.92643Z" fill="url(#paint8_linear)"/>
<path d="M161.874 4.13072C161.979 4.25392 162.112 4.35084 162.261 4.41371C162.727 4.65657 163.178 4.92707 163.612 5.22376C163.906 5.42368 164.391 6.02083 164.701 5.55869C164.784 5.43926 164.823 5.29906 164.906 5.17703C164.944 5.12542 164.984 5.07601 165.028 5.02904C164.792 4.57912 164.617 4.09976 164.508 3.60366C164.345 3.56509 164.177 3.55109 164.009 3.56212L162.791 3.58549C162.573 3.58549 162.354 3.58549 162.136 3.61405C162.044 3.61364 161.953 3.64075 161.876 3.69194C161.823 3.75252 161.794 3.83025 161.793 3.91084C161.793 3.99144 161.821 4.06951 161.874 4.13072Z" fill="url(#paint9_linear)"/>
<path d="M146.968 124.418C145.929 126.539 145.173 128.188 145.173 128.188L132.097 128.811C132.097 128.811 134.264 123.081 137.789 124.561C138.982 125.059 143.302 124.122 143.302 124.122L143.437 123.688L146.968 124.418Z" fill="#5A5A5A"/>
<path d="M193.314 125.059L191.31 126.181L174.163 108.168L172.271 84.1207L156.636 98.2939C156.636 98.2939 157.054 108.053 151.588 115.689C150.608 117.058 148.615 121.032 147.108 124.138C147.062 124.234 147.015 124.332 146.971 124.428L146.677 124.369L145.656 124.156L143.44 123.699L150.626 94.6721L166.956 68.6934L177.688 71.5493L182.625 72.8656C182.625 72.8656 185.956 79.5356 182.625 96.7985L180.417 106.68C180.417 106.68 189.318 111.424 192.061 120.807L193.311 125.054L193.314 125.059Z" fill="#3F3D56"/>
<path d="M193.314 125.059L195.348 127.186L190.186 132.565H183.43C183.43 132.565 184.87 130.19 187.749 129.813C190.627 129.437 191.316 126.178 191.316 126.178L193.314 125.059Z" fill="#5A5A5A"/>
<path opacity="0.22" d="M56.0703 19.2283L54.9297 19.6021C59.8661 16.6917 58.9204 9.29995 58.8607 8.86377C58.9386 9.21427 60.087 14.0927 59.4608 15.6947C58.6788 17.6964 56.0703 19.2283 56.0703 19.2283Z" fill="white"/>
<path opacity="0.22" d="M47.9122 28.1544C47.3094 28.9879 44.9139 30.273 44.7502 30.3587C47.9719 28.4452 47.2419 23.52 47.2419 23.52V23.5486C47.3692 23.8861 48.4993 27.3392 47.9122 28.1544Z" fill="white"/>
<path opacity="0.22" d="M46.4156 55.6312L99.3317 96.3181L101.556 94.6616L46.2234 52.0795L46.4156 55.6312Z" fill="white"/>
<path opacity="0.22" d="M103.307 96.0558L160.39 54.9977V52.1963L101.556 94.7758L103.307 96.0558Z" fill="white"/>
<path opacity="0.22" d="M160.359 51.5733L160.203 52.0095L159.042 53.17C159.858 51.7628 157.553 48.4966 157.553 48.4966L156.633 47.8086L153.872 45.7316L101.556 6.62586L103.221 5.35107L156.865 46.443C157.832 46.9358 158.659 47.6642 159.269 48.5609C159.88 49.4576 160.255 50.4936 160.359 51.5733Z" fill="white"/>
<path opacity="0.61" d="M202.498 32.8175C202.498 32.8175 193.709 44.1764 192.041 46.0795C188.998 49.5377 187.037 54.0735 187.037 54.0735L182.62 72.8552L177.683 71.5389C177.683 71.5389 182.292 54.3176 184.145 50.662C185.997 47.0063 201.433 31.8542 201.433 31.8542L202.498 32.8175Z" fill="url(#paint10_linear)"/>
<path d="M193.311 125.054C193.22 124.794 190.287 116.652 185.883 113.238C181.412 109.77 178.813 104.982 178.813 104.982C177.761 95.791 177.688 71.5388 177.688 71.5388L182.625 72.8551C182.625 72.8551 185.956 79.5251 182.625 96.788L180.417 106.67C180.417 106.67 189.318 111.423 192.061 120.806L193.311 125.054Z" fill="#25233A"/>
<path d="M156.636 98.2887C156.636 98.2887 157.054 108.048 151.588 115.684C150.608 117.052 148.616 121.027 147.109 124.132L146.677 124.363L145.656 124.151L154.131 97.4371C154.131 97.4371 164.397 85.2837 166.275 84.1206C168.153 82.9574 172.271 84.1206 172.271 84.1206L156.636 98.2887Z" fill="#25233A"/>
</g>
<defs>
<linearGradient id="paint0_linear" x1="47.8419" y1="48.4524" x2="48.8357" y2="45.7492" gradientUnits="userSpaceOnUse">
<stop offset="0.36" stop-color="#00272E"/>
<stop offset="0.75" stop-color="#3F80A1" stop-opacity="0.25"/>
<stop offset="1" stop-color="#69B9EB" stop-opacity="0"/>
</linearGradient>
<linearGradient id="paint1_linear" x1="39239.7" y1="31034.8" x2="47488.8" y2="2398.18" gradientUnits="userSpaceOnUse">
<stop offset="0.36" stop-color="#00272E"/>
<stop offset="0.75" stop-color="#3F80A1" stop-opacity="0.25"/>
<stop offset="1" stop-color="#69B9EB" stop-opacity="0"/>
</linearGradient>
<linearGradient id="paint2_linear" x1="23255.1" y1="480.546" x2="23253.7" y2="1923.82" gradientUnits="userSpaceOnUse">
<stop stop-color="white"/>
<stop offset="0.01" stop-color="#67DDF9"/>
<stop offset="0.12" stop-color="#5CB3CE"/>
<stop offset="0.24" stop-color="#538EA9"/>
<stop offset="0.37" stop-color="#4C718B"/>
<stop offset="0.5" stop-color="#465A73"/>
<stop offset="0.63" stop-color="#424A63"/>
<stop offset="0.79" stop-color="#404059"/>
<stop offset="0.99" stop-color="#3F3D56"/>
</linearGradient>
<linearGradient id="paint3_linear" x1="177.457" y1="39.1602" x2="182.911" y2="39.1602" gradientUnits="userSpaceOnUse">
<stop stop-color="#ECC4D7"/>
<stop offset="0.42" stop-color="#EFD4D1"/>
<stop offset="1" stop-color="#F2EAC9"/>
</linearGradient>
<linearGradient id="paint4_linear" x1="3799.12" y1="858.864" x2="3770.04" y2="1145.85" gradientUnits="userSpaceOnUse">
<stop stop-color="#ECC4D7"/>
<stop offset="0.42" stop-color="#EFD4D1"/>
<stop offset="1" stop-color="#F2EAC9"/>
</linearGradient>
<linearGradient id="paint5_linear" x1="7858.72" y1="1772.24" x2="8373.48" y2="1772.24" gradientUnits="userSpaceOnUse">
<stop stop-color="#ECC4D7"/>
<stop offset="0.42" stop-color="#EFD4D1"/>
<stop offset="1" stop-color="#F2EAC9"/>
</linearGradient>
<linearGradient id="paint6_linear" x1="12023.3" y1="1672.78" x2="12944.6" y2="1672.78" gradientUnits="userSpaceOnUse">
<stop stop-color="#ECC4D7"/>
<stop offset="0.42" stop-color="#EFD4D1"/>
<stop offset="1" stop-color="#F2EAC9"/>
</linearGradient>
<linearGradient id="paint7_linear" x1="2944.71" y1="164.832" x2="2938.06" y2="74.0294" gradientUnits="userSpaceOnUse">
<stop stop-color="#ECC4D7"/>
<stop offset="0.42" stop-color="#EFD4D1"/>
<stop offset="1" stop-color="#F2EAC9"/>
</linearGradient>
<linearGradient id="paint8_linear" x1="1729.61" y1="-3148.78" x2="1397.25" y2="-3356.17" gradientUnits="userSpaceOnUse">
<stop stop-color="#ECC4D7"/>
<stop offset="0.42" stop-color="#EFD4D1"/>
<stop offset="1" stop-color="#F2EAC9"/>
</linearGradient>
<linearGradient id="paint9_linear" x1="-1.34641" y1="-466.784" x2="60.4546" y2="-549.182" gradientUnits="userSpaceOnUse">
<stop stop-color="#ECC4D7"/>
<stop offset="0.42" stop-color="#EFD4D1"/>
<stop offset="1" stop-color="#F2EAC9"/>
</linearGradient>
<linearGradient id="paint10_linear" x1="200.03" y1="57.7239" x2="180.343" y2="46.3713" gradientUnits="userSpaceOnUse">
<stop/>
<stop offset="0.98" stop-opacity="0"/>
</linearGradient>
<clipPath id="clip0">
<rect width="214" height="155" fill="white"/>
</clipPath>
</defs>
</svg>
