<svg width="176" height="176" viewBox="0 0 176 176" fill="none" xmlns="http://www.w3.org/2000/svg">
<g clip-path="url(#clip0)">
<path opacity="0.18" d="M16.3376 170.796C8.98533 174.361 31.3722 176.44 39.5116 175.917L75.247 173.631C76.7917 173.534 80.8923 173.49 79.6896 172.509C73.5342 167.488 26.0394 166.088 16.3376 170.796Z" fill="#0088FF"/>
<path opacity="0.18" d="M163.378 136.444C161.093 139.763 158.558 142.173 155.817 143.396C134.202 153.027 127.896 128.348 71.8406 148.201C67.489 149.758 63.0531 151.068 58.5541 152.124C26.7454 159.469 12.5274 146.766 8.06708 136.444C6.25408 132.256 6.04772 128.469 6.92622 126.553C10.2456 119.346 7.22101 107.597 0.903505 73.9277C-5.414 40.2581 22.5181 29.0911 44.2387 23.8014C58.1591 20.4138 64.9394 15.7591 68.0141 12.8529C71.5881 9.43283 75.8089 6.76367 80.4281 5.00262C111.677 -6.67834 126.853 3.82123 145.478 18.7126C149.59 21.988 153.874 25.4908 158.517 29.0084C182.9 47.441 179.123 113.566 163.378 136.444Z" fill="#0088FF"/>
<path opacity="0.18" d="M163.38 136.444C161.095 139.764 158.56 142.174 155.818 143.397C134.204 153.028 127.898 128.349 71.8422 148.202C30.6029 162.807 13.1096 148.102 8.0686 136.444H163.38Z" fill="#DBD9FF"/>
<path d="M158.374 43.1412V123.88C158.374 124.659 158.221 125.431 157.923 126.15C157.625 126.87 157.189 127.524 156.639 128.075C156.089 128.625 155.436 129.062 154.718 129.36C153.999 129.658 153.229 129.811 152.452 129.811H30.1106C29.3318 129.813 28.5603 129.661 27.8403 129.364C27.1202 129.066 26.4657 128.63 25.9142 128.079C25.3628 127.528 24.9251 126.874 24.6264 126.153C24.3277 125.433 24.1737 124.66 24.1733 123.88V43.1412C24.1749 41.5686 24.7996 40.0609 25.9101 38.9494C27.0206 37.8379 28.5261 37.2136 30.0958 37.2136H152.452C153.229 37.2132 153.999 37.3663 154.717 37.6639C155.435 37.9616 156.088 38.3981 156.638 38.9486C157.188 39.499 157.624 40.1525 157.922 40.8719C158.22 41.5913 158.374 42.3624 158.374 43.1412Z" fill="white"/>
<path d="M46.805 151.817C46.5604 153.397 37.4128 170.064 37.4128 170.064C40.0866 170.548 41.0594 172.497 41.0594 172.497H32.7756L39.329 151.823C39.329 151.823 39.609 141.941 37.9051 136.586C36.7731 133.015 36.8409 128.877 37.0207 126.515C37.1062 125.333 37.2153 124.601 37.2153 124.601L49.4405 130.136C49.4405 130.136 47.0497 150.234 46.805 151.817Z" fill="#25233A"/>
<path d="M61.7128 172.497H53.3199V172.453L51.8047 150.721C51.8047 150.721 44.7118 142.074 40.5847 135.744C36.4575 129.415 37.165 125.254 37.165 125.254H48.4558C49.0277 125.484 49.8 127.729 50.2982 128.854C52.4001 133.627 57.17 143.5 57.5886 145.378C58.9299 151.359 57.0963 169.334 57.0963 169.334C59.6492 169.576 61.7128 172.497 61.7128 172.497Z" fill="#3F3D56"/>
<path d="M158.521 43.1443V45.0995H24.3208V43.1443C24.3224 41.5716 24.947 40.0639 26.0575 38.9525C27.1681 37.841 28.6736 37.2167 30.2433 37.2167H152.599C153.376 37.2163 154.146 37.3693 154.865 37.667C155.583 37.9647 156.236 38.4012 156.786 38.9516C157.336 39.502 157.772 40.1556 158.07 40.875C158.368 41.5944 158.521 42.3655 158.521 43.1443Z" fill="#0088FF"/>
<path d="M31.0776 41.5789C31.0776 41.8277 31.0039 42.071 30.8659 42.2779C30.7279 42.4848 30.5318 42.646 30.3023 42.7413C30.0729 42.8365 29.8204 42.8614 29.5768 42.8129C29.3331 42.7643 29.1094 42.6445 28.9337 42.4685C28.7581 42.2926 28.6385 42.0684 28.59 41.8243C28.5416 41.5803 28.5665 41.3273 28.6615 41.0974C28.7566 40.8675 28.9175 40.671 29.124 40.5327C29.3306 40.3945 29.5734 40.3207 29.8218 40.3207C29.9868 40.3203 30.1503 40.3526 30.3028 40.4157C30.4553 40.4788 30.5939 40.5714 30.7106 40.6883C30.8273 40.8052 30.9198 40.9441 30.9828 41.0969C31.0458 41.2497 31.078 41.4135 31.0776 41.5789Z" fill="url(#paint0_linear)"/>
<path d="M34.6889 41.5789C34.6889 41.8277 34.6153 42.071 34.4773 42.2779C34.3393 42.4848 34.1431 42.646 33.9137 42.7413C33.6842 42.8365 33.4317 42.8614 33.1881 42.8129C32.9445 42.7643 32.7207 42.6445 32.5451 42.4685C32.3694 42.2926 32.2498 42.0684 32.2014 41.8243C32.1529 41.5803 32.1778 41.3273 32.2728 41.0974C32.3679 40.8675 32.5289 40.671 32.7354 40.5327C32.9419 40.3945 33.1847 40.3207 33.4331 40.3207C33.5981 40.3203 33.7616 40.3526 33.9141 40.4157C34.0667 40.4788 34.2053 40.5714 34.322 40.6883C34.4387 40.8052 34.5311 40.9441 34.5941 41.0969C34.6571 41.2497 34.6893 41.4135 34.6889 41.5789Z" fill="url(#paint1_linear)"/>
<path d="M38.2971 41.5789C38.2971 41.8277 38.2234 42.071 38.0854 42.2779C37.9474 42.4848 37.7513 42.646 37.5218 42.7413C37.2924 42.8365 37.0398 42.8614 36.7962 42.8129C36.5526 42.7643 36.3289 42.6445 36.1532 42.4685C35.9776 42.2926 35.858 42.0684 35.8095 41.8243C35.7611 41.5803 35.7859 41.3273 35.881 41.0974C35.976 40.8675 36.137 40.671 36.3435 40.5327C36.5501 40.3945 36.7929 40.3207 37.0412 40.3207C37.2063 40.3203 37.3697 40.3526 37.5223 40.4157C37.6748 40.4788 37.8134 40.5714 37.9301 40.6883C38.0468 40.8052 38.1393 40.9441 38.2023 41.0969C38.2652 41.2497 38.2975 41.4135 38.2971 41.5789Z" fill="url(#paint2_linear)"/>
<path d="M39.8507 114.937L37.1032 119.866C36.7382 119.608 36.3915 119.325 36.0655 119.019C33.9283 117.049 29.58 111.659 33.7779 103.132C33.7779 103.132 35.7088 97.8601 36.7937 95.6036C36.933 95.2437 37.1324 94.9102 37.3833 94.6172C38.0377 94.1712 39.8507 114.937 39.8507 114.937Z" fill="#0088FF"/>
<path d="M52.3134 85.566C53.5883 84.6773 53.1972 81.9053 51.4397 79.3747C49.6822 76.8442 47.2239 75.5132 45.9489 76.402C44.6739 77.2907 45.0651 80.0627 46.8226 82.5933C48.5801 85.1238 51.0384 86.4548 52.3134 85.566Z" stroke="#007189" stroke-width="3.29" stroke-miterlimit="10"/>
<path d="M52.0288 86.0403L53.7209 88.3854L54.6112 87.7179L52.8985 85.5205L52.0288 86.0403Z" fill="#007189"/>
<path d="M53.5476 85.9421L52.2722 87.0154L57.2248 92.9224L58.5002 91.8491L53.5476 85.9421Z" fill="#091240"/>
<path d="M46.4453 77.4724C46.4453 77.4724 47.2148 79.2445 47.8633 81.1317C48.0343 81.619 48.9924 81.9292 49.131 82.4047C49.4022 83.3439 48.6829 83.6392 48.6475 84.1767C48.5266 86.002 49.1929 87.9897 46.127 89.1061C43.4089 90.0955 44.5056 94.5405 44.5056 94.5405C44.5056 94.5405 41.024 96.0822 39.494 94.1358C39.494 94.1358 40.063 88.2939 37.6339 83.2641C35.2047 78.2344 41.7875 72.6848 46.4453 77.4724Z" fill="url(#paint3_linear)"/>
<path d="M39.0637 93.297L39.3585 91.8557C39.3585 91.8557 44.1785 92.1215 44.6649 92.5764C44.9956 92.9115 45.2695 93.2986 45.4756 93.7223L39.0637 93.297Z" fill="#25233A"/>
<path d="M48.4559 125.375H39.7889C39.1993 125.375 38.6716 125.375 38.2265 125.375C36.6346 125.324 35.9742 125.038 36.0155 123.464C36.0921 120.59 36.0155 100.76 36.7849 96.2919C37.2536 93.5422 39.2671 93.0106 39.7123 92.9249H39.7801C39.7801 92.9249 42.8283 93.1878 44.0929 93.1701C45.4402 93.1494 47.0881 95.1282 47.0881 95.1282C47.0881 95.1282 48.1376 99.201 49.075 102.665C49.532 104.361 49.9594 105.914 50.2306 106.768C50.7966 108.578 51.4422 116.922 51.7842 121.804C51.814 122.261 51.7501 122.719 51.5965 123.15C51.4428 123.581 51.2027 123.976 50.8909 124.31C50.579 124.645 50.2021 124.912 49.7833 125.095C49.3646 125.278 48.9128 125.373 48.4559 125.375Z" fill="#0088FF"/>
<path opacity="0.61" d="M48.4558 125.375H45.5078L44.3286 101.339L49.0896 102.651C49.5465 104.346 49.974 105.899 50.2452 106.753C50.8112 108.564 51.4568 116.907 51.7988 121.789C51.8308 122.248 51.768 122.709 51.6144 123.143C51.4608 123.577 51.2197 123.974 50.9061 124.311C50.5925 124.647 50.213 124.915 49.7915 125.098C49.3699 125.281 48.9152 125.375 48.4558 125.375Z" fill="url(#paint4_linear)"/>
<path d="M46.4454 77.4723L45.3045 77.3483C45.2845 77.709 45.1821 78.0604 45.0052 78.3753C44.8284 78.6901 44.5819 78.9602 44.2845 79.1647C44.1421 78.9352 43.9377 78.7509 43.695 78.6331C43.2763 79.1204 43.7657 79.844 43.7746 80.4819C43.7552 80.7844 43.6936 81.0826 43.5918 81.368C43.4227 82.0078 43.3925 82.6766 43.5033 83.3291C43.0729 83.2966 42.8695 82.7177 42.4509 82.632C42.0323 82.5464 41.7522 82.9274 41.6491 83.2907C41.5972 83.5112 41.5903 83.7399 41.6287 83.9632C41.667 84.1865 41.7499 84.3997 41.8723 84.5902C41.9948 84.7807 42.1543 84.9445 42.3413 85.0719C42.5283 85.1992 42.7391 85.2875 42.9609 85.3315C43.0582 85.3463 43.1732 85.3611 43.2262 85.4437C43.2555 85.5021 43.2658 85.5682 43.2557 85.6328C43.2452 86.4563 43.0998 87.2724 42.8253 88.0487C42.5431 88.8304 41.9693 89.472 41.2245 89.8385C40.7087 90.0659 39.9864 90.0482 39.7034 89.5432C39.7476 89.806 39.4292 90.0157 39.1669 89.9596C38.9151 89.8742 38.7046 89.6971 38.5773 89.4634C37.7518 88.2584 37.5396 86.7551 37.0561 85.3758C36.6346 84.1708 35.9978 83.0514 35.5084 81.8701C35.0191 80.6887 34.6653 79.4039 34.8569 78.1428C35.0109 77.2308 35.4333 76.3857 36.0699 75.7159C36.7065 75.046 37.5283 74.5819 38.4299 74.383C38.7681 74.3401 39.1004 74.2589 39.4204 74.1408C39.6964 73.9825 39.964 73.81 40.2222 73.624C40.7744 73.3538 41.377 73.2029 41.991 73.181C42.6306 73.1347 43.273 73.1476 43.9102 73.2194C46.2685 73.3995 46.1771 75.6501 46.3481 76.1344C46.3599 76.2467 46.584 77.4871 46.4454 77.4723Z" fill="#3F3D56"/>
<path d="M54.2811 86.4273C54.2927 86.2004 54.3477 85.9778 54.4433 85.7716C54.4921 85.6688 54.5696 85.5824 54.6663 85.5226C54.7631 85.4629 54.875 85.4324 54.9886 85.435C55.2834 85.4674 55.4485 85.751 55.5782 86.005C55.7669 86.3653 55.9526 86.7256 56.1383 87.0889C56.5658 86.891 57.0522 87.2336 57.3175 87.6264C57.5829 88.0192 57.7332 88.4947 58.1076 88.7753C58.2245 88.8465 58.3299 88.9351 58.4201 89.0382C58.5126 89.2107 58.5428 89.41 58.5056 89.6023L58.4437 90.3643C58.4053 90.8605 58.3434 91.4069 57.9838 91.7554C57.6448 92.0197 57.2335 92.1742 56.8046 92.1984C56.4322 92.2749 56.0498 92.2898 55.6726 92.2427C55.1551 92.1053 54.6793 91.8426 54.287 91.4777C53.7181 91.017 52.1645 89.5107 53.1815 88.9112C53.5766 88.6779 53.7918 88.9466 54.0659 88.4859C54.3401 88.0251 54.234 86.9442 54.2811 86.4273Z" fill="url(#paint5_linear)"/>
<path d="M58.252 102.58C57.4501 106.124 54.9561 108.191 52.4415 108.626C51.304 108.84 50.1275 108.675 49.0926 108.156C45.9088 106.508 42.5098 97.8424 42.6808 95.1016C42.7633 93.7903 43.3234 93.1789 44.1017 93.1641C44.9507 93.1435 46.0621 93.8375 47.0968 95.1134C48.1316 96.3893 48.9835 98.1053 49.8443 99.3841C50.1448 99.8616 50.5077 100.297 50.9233 100.678C51.1714 100.906 51.4773 101.063 51.8077 101.13C52.0286 101.154 52.2522 101.132 52.464 101.064C52.6758 100.996 52.871 100.885 53.037 100.737C55.3954 98.9086 54.4461 91.7494 54.4461 91.7494L55.6636 91.6786L58.1576 91.5309C58.1576 91.5309 59.4223 97.3758 58.252 102.58Z" fill="#0088FF"/>
<path opacity="0.24" d="M37.8638 124.908C37.9994 125.05 38.1236 125.202 38.2353 125.363C36.6434 125.316 35.983 125.029 36.0243 123.455C36.1009 120.581 36.0243 100.752 36.7937 96.283C37.2624 93.5333 39.2759 93.0017 39.721 92.916H39.7888C38.7655 94.1838 38.1007 95.7036 37.8638 97.3167C37.5219 99.9098 37.0443 124.057 37.8638 124.908Z" fill="white"/>
<path opacity="0.24" d="M52.4415 108.626C51.304 108.84 50.1275 108.675 49.0926 108.156C45.9088 106.508 42.5098 97.8425 42.6808 95.1017C42.7633 93.7903 43.3234 93.179 44.1017 93.1642C44.1017 93.4595 42.8252 96.6611 46.6694 103.466C49.2636 108.061 51.7605 108.253 52.4415 108.626Z" fill="white"/>
<path d="M50.9232 100.678C50.4468 100.36 50.0721 99.9104 49.8442 99.3842C50.1447 99.8616 50.5076 100.297 50.9232 100.678Z" fill="white"/>
<path opacity="0.24" d="M51.8105 101.142C52.0315 101.166 52.2551 101.144 52.4669 101.076C52.6787 101.008 52.8739 100.897 53.0399 100.749C55.3982 98.9205 54.449 91.7613 54.449 91.7613L55.6665 91.6904C55.6665 91.6904 56.8634 103.014 51.8105 101.142Z" fill="white"/>
<path opacity="0.24" d="M33.2207 110.297C32.6075 114.196 36.0773 117.704 36.0773 117.704V119.01C33.94 117.04 29.5917 111.65 33.7896 103.123C33.7896 103.123 35.7206 97.8513 36.8054 95.5948V96.2771C36.8054 96.2771 33.8368 106.407 33.2207 110.297Z" fill="white"/>
<path opacity="0.24" d="M53.7063 172.497C53.7181 172.806 53.7616 173.113 53.836 173.413L53.3496 172.497L53.326 172.453L51.8108 150.721C51.8108 150.721 44.7179 142.074 40.5908 135.744C36.4636 129.415 37.1711 125.254 37.1711 125.254H37.9936C38.0794 125.284 38.1631 125.321 38.2442 125.363C38.2442 125.363 39.0608 132.826 51.8668 148.872C51.8668 148.872 54.3903 151.2 53.8095 160.022C53.2848 167.851 53.5943 171.139 53.7063 172.497Z" fill="white"/>
<path opacity="0.24" d="M40.6172 152.638L33.7897 172.497H32.7756L39.329 151.823C39.329 151.823 39.609 141.941 37.9051 136.586C36.7731 133.015 36.8409 128.877 37.0207 126.515L38.2412 131.24C38.4659 133.841 38.9852 136.407 39.7889 138.89C41.0712 142.652 40.6172 152.638 40.6172 152.638Z" fill="white"/>
<path d="M64.5215 61.1367H54.4664C53.3683 61.1367 52.478 62.0269 52.478 63.1249V73.1791C52.478 74.2771 53.3683 75.1673 54.4664 75.1673H64.5215C65.6197 75.1673 66.5099 74.2771 66.5099 73.1791V63.1249C66.5099 62.0269 65.6197 61.1367 64.5215 61.1367Z" fill="#EBEBF0"/>
<path opacity="0.38" d="M66.5079 71.3124V73.177C66.5079 73.4381 66.4564 73.6966 66.3565 73.9378C66.2566 74.179 66.1101 74.3982 65.9255 74.5828C65.7408 74.7675 65.5216 74.9139 65.2804 75.0138C65.0392 75.1138 64.7806 75.1652 64.5195 75.1652H54.4623C54.2011 75.1652 53.9426 75.1138 53.7013 75.0138C53.4601 74.9139 53.2409 74.7675 53.0563 74.5828C52.8716 74.3982 52.7252 74.179 52.6252 73.9378C52.5253 73.6966 52.4739 73.4381 52.4739 73.177V71.3124C54.1476 70.1971 56.0447 69.4606 58.0326 69.1545C57.4574 68.8314 57.0059 68.3262 56.7494 67.7185C56.4929 67.1107 56.4458 66.4349 56.6155 65.7974C56.7853 65.16 57.1623 64.5971 57.6872 64.1974C58.212 63.7977 58.8549 63.5839 59.5147 63.5897C60.1744 63.5955 60.8134 63.8205 61.3312 64.2294C61.849 64.6382 62.216 65.2076 62.3746 65.848C62.5332 66.4883 62.4742 67.1632 62.2071 67.7663C61.9399 68.3695 61.4797 68.8667 60.8989 69.1796C63.872 69.6573 66.5079 71.3124 66.5079 71.3124Z" fill="#D8D8D8"/>
<path d="M109.955 63.59H72.0309C71.8642 63.59 71.7043 63.5238 71.5864 63.406C71.4686 63.2881 71.4023 63.1282 71.4023 62.9615C71.4023 62.7948 71.4686 62.635 71.5864 62.5171C71.7043 62.3992 71.8642 62.333 72.0309 62.333H109.955C110.122 62.333 110.282 62.3992 110.399 62.5171C110.517 62.635 110.584 62.7948 110.584 62.9615C110.584 63.1282 110.517 63.2881 110.399 63.406C110.282 63.5238 110.122 63.59 109.955 63.59Z" fill="#EBEBF0"/>
<path d="M109.955 67.6313H72.0309C71.8642 67.6313 71.7043 67.5651 71.5864 67.4472C71.4686 67.3293 71.4023 67.1695 71.4023 67.0028C71.4023 66.8361 71.4686 66.6762 71.5864 66.5584C71.7043 66.4405 71.8642 66.3743 72.0309 66.3743H109.955C110.122 66.3743 110.282 66.4405 110.399 66.5584C110.517 66.6762 110.584 66.8361 110.584 67.0028C110.584 67.1695 110.517 67.3293 110.399 67.4472C110.282 67.5651 110.122 67.6313 109.955 67.6313Z" fill="#EBEBF0"/>
<path d="M109.955 71.6749H72.0309C71.8642 71.6749 71.7043 71.6087 71.5864 71.4908C71.4686 71.3729 71.4023 71.2131 71.4023 71.0464C71.4023 70.8797 71.4686 70.7198 71.5864 70.6019C71.7043 70.4841 71.8642 70.4178 72.0309 70.4178H109.955C110.122 70.4178 110.282 70.4841 110.399 70.6019C110.517 70.7198 110.584 70.8797 110.584 71.0464C110.584 71.2131 110.517 71.3729 110.399 71.4908C110.282 71.6087 110.122 71.6749 109.955 71.6749Z" fill="#EBEBF0"/>
<path d="M139.011 79.7437H91.8159C90.1139 79.7437 88.7341 81.0496 88.7341 82.6606V93.6614C88.7341 95.2724 90.1139 96.5784 91.8159 96.5784H139.011C140.713 96.5784 142.092 95.2724 142.092 93.6614V82.6606C142.092 81.0496 140.713 79.7437 139.011 79.7437Z" fill="#0088FF"/>
<path d="M134.657 84.8402H96.7326C96.5659 84.8402 96.406 84.7739 96.2881 84.6561C96.1702 84.5382 96.104 84.3783 96.104 84.2116C96.104 84.045 96.1702 83.8851 96.2881 83.7672C96.406 83.6494 96.5659 83.5831 96.7326 83.5831H134.657C134.823 83.5831 134.983 83.6494 135.101 83.7672C135.219 83.8851 135.285 84.045 135.285 84.2116C135.285 84.3783 135.219 84.5382 135.101 84.6561C134.983 84.7739 134.823 84.8402 134.657 84.8402Z" fill="#EBEBF0"/>
<path d="M134.657 88.8814H96.7326C96.5659 88.8814 96.406 88.8152 96.2881 88.6973C96.1702 88.5795 96.104 88.4196 96.104 88.2529C96.104 88.0862 96.1702 87.9264 96.2881 87.8085C96.406 87.6906 96.5659 87.6244 96.7326 87.6244H134.657C134.823 87.6244 134.983 87.6906 135.101 87.8085C135.219 87.9264 135.285 88.0862 135.285 88.2529C135.285 88.4196 135.219 88.5795 135.101 88.6973C134.983 88.8152 134.823 88.8814 134.657 88.8814Z" fill="#EBEBF0"/>
<path d="M134.657 92.925H96.7326C96.5659 92.925 96.406 92.8587 96.2881 92.7409C96.1702 92.623 96.104 92.4632 96.104 92.2965C96.104 92.1298 96.1702 91.9699 96.2881 91.852C96.406 91.7342 96.5659 91.668 96.7326 91.668H134.657C134.823 91.668 134.983 91.7342 135.101 91.852C135.219 91.9699 135.285 92.1298 135.285 92.2965C135.285 92.4632 135.219 92.623 135.101 92.7409C134.983 92.8587 134.823 92.925 134.657 92.925Z" fill="#EBEBF0"/>
<path d="M90.4723 111.05H58.4006C57.244 111.05 56.3064 111.988 56.3064 113.144V121.041C56.3064 122.198 57.244 123.135 58.4006 123.135H90.4723C91.6289 123.135 92.5665 122.198 92.5665 121.041V113.144C92.5665 111.988 91.6289 111.05 90.4723 111.05Z" fill="#D8D8D8"/>
<path d="M65.0685 113.267H59.5826C58.9835 113.267 58.4978 113.752 58.4978 114.351V119.837C58.4978 120.436 58.9835 120.921 59.5826 120.921H65.0685C65.6676 120.921 66.1533 120.436 66.1533 119.837V114.351C66.1533 113.752 65.6676 113.267 65.0685 113.267Z" fill="#EBEBF0"/>
<path opacity="0.38" d="M66.1523 118.818V119.836C66.1523 119.978 66.1242 120.119 66.0697 120.251C66.0152 120.382 65.9353 120.502 65.8345 120.603C65.7338 120.703 65.6142 120.783 65.4826 120.838C65.351 120.892 65.2099 120.92 65.0675 120.92H59.5804C59.438 120.92 59.2969 120.892 59.1653 120.838C59.0337 120.783 58.9141 120.703 58.8133 120.603C58.7126 120.502 58.6327 120.382 58.5782 120.251C58.5237 120.119 58.4956 119.978 58.4956 119.836V118.818C59.4088 118.21 60.4438 117.808 61.5283 117.641C61.2145 117.465 60.9682 117.189 60.8283 116.858C60.6883 116.526 60.6626 116.157 60.7552 115.81C60.8479 115.462 61.0535 115.155 61.3399 114.937C61.6262 114.719 61.977 114.602 62.3369 114.605C62.6969 114.608 63.0455 114.731 63.328 114.954C63.6105 115.177 63.8107 115.488 63.8972 115.837C63.9838 116.186 63.9516 116.555 63.8058 116.884C63.6601 117.213 63.409 117.484 63.0921 117.655C64.7142 117.915 66.1523 118.818 66.1523 118.818Z" fill="#D8D8D8"/>
<path d="M89.8561 114.605H69.1654C69.0745 114.605 68.9873 114.569 68.923 114.505C68.8586 114.44 68.8225 114.353 68.8225 114.262C68.8225 114.171 68.8586 114.084 68.923 114.02C68.9873 113.955 69.0745 113.919 69.1654 113.919H89.8561C89.9471 113.919 90.0343 113.955 90.0986 114.02C90.1629 114.084 90.199 114.171 90.199 114.262C90.199 114.353 90.1629 114.44 90.0986 114.505C90.0343 114.569 89.9471 114.605 89.8561 114.605Z" fill="#EBEBF0"/>
<path d="M89.8561 116.81H69.1654C69.0745 116.81 68.9873 116.774 68.923 116.71C68.8586 116.645 68.8225 116.558 68.8225 116.467C68.8225 116.376 68.8586 116.289 68.923 116.225C68.9873 116.16 69.0745 116.124 69.1654 116.124H89.8561C89.9471 116.124 90.0343 116.16 90.0986 116.225C90.1629 116.289 90.199 116.376 90.199 116.467C90.199 116.558 90.1629 116.645 90.0986 116.71C90.0343 116.774 89.9471 116.81 89.8561 116.81Z" fill="#EBEBF0"/>
<path d="M89.8561 119.016H69.1654C69.0745 119.016 68.9873 118.98 68.923 118.916C68.8586 118.851 68.8225 118.764 68.8225 118.673C68.8225 118.582 68.8586 118.495 68.923 118.431C68.9873 118.366 69.0745 118.33 69.1654 118.33H89.8561C89.9471 118.33 90.0343 118.366 90.0986 118.431C90.1629 118.495 90.199 118.582 90.199 118.673C90.199 118.764 90.1629 118.851 90.0986 118.916C90.0343 118.98 89.9471 119.016 89.8561 119.016Z" fill="#EBEBF0"/>
<path d="M139.998 103.371H107.926C106.77 103.371 105.832 104.309 105.832 105.465V113.363C105.832 114.519 106.77 115.457 107.926 115.457H139.998C141.155 115.457 142.092 114.519 142.092 113.363V105.465C142.092 104.309 141.155 103.371 139.998 103.371Z" fill="#D8D8D8"/>
<path d="M114.594 105.588H109.109C108.509 105.588 108.024 106.073 108.024 106.672V112.158C108.024 112.757 108.509 113.242 109.109 113.242H114.594C115.193 113.242 115.679 112.757 115.679 112.158V106.672C115.679 106.073 115.193 105.588 114.594 105.588Z" fill="#EBEBF0"/>
<path opacity="0.38" d="M115.678 111.139V112.157C115.678 112.299 115.65 112.44 115.596 112.572C115.541 112.703 115.461 112.823 115.36 112.924C115.26 113.024 115.14 113.104 115.008 113.159C114.877 113.213 114.736 113.241 114.593 113.241H109.106C108.964 113.241 108.823 113.213 108.691 113.159C108.56 113.104 108.44 113.024 108.339 112.924C108.238 112.823 108.159 112.703 108.104 112.572C108.05 112.44 108.021 112.299 108.021 112.157V111.139C108.935 110.531 109.97 110.129 111.054 109.962C110.74 109.786 110.494 109.51 110.354 109.179C110.214 108.847 110.188 108.478 110.281 108.13C110.374 107.783 110.579 107.476 110.866 107.258C111.152 107.039 111.503 106.923 111.863 106.926C112.223 106.929 112.571 107.052 112.854 107.275C113.136 107.498 113.337 107.809 113.423 108.158C113.51 108.507 113.477 108.876 113.332 109.205C113.186 109.534 112.935 109.805 112.618 109.976C114.24 110.236 115.678 111.139 115.678 111.139Z" fill="#D8D8D8"/>
<path d="M139.382 106.926H118.691C118.6 106.926 118.513 106.89 118.449 106.826C118.385 106.761 118.348 106.674 118.348 106.583C118.348 106.492 118.385 106.405 118.449 106.341C118.513 106.276 118.6 106.24 118.691 106.24H139.382C139.473 106.24 139.56 106.276 139.624 106.341C139.689 106.405 139.725 106.492 139.725 106.583C139.725 106.674 139.689 106.761 139.624 106.826C139.56 106.89 139.473 106.926 139.382 106.926Z" fill="#EBEBF0"/>
<path d="M139.382 109.131H118.691C118.6 109.131 118.513 109.095 118.449 109.031C118.385 108.966 118.348 108.879 118.348 108.788C118.348 108.697 118.385 108.61 118.449 108.546C118.513 108.481 118.6 108.445 118.691 108.445H139.382C139.473 108.445 139.56 108.481 139.624 108.546C139.689 108.61 139.725 108.697 139.725 108.788C139.725 108.879 139.689 108.966 139.624 109.031C139.56 109.095 139.473 109.131 139.382 109.131Z" fill="#EBEBF0"/>
<path d="M139.382 111.337H118.691C118.6 111.337 118.513 111.301 118.449 111.237C118.385 111.172 118.348 111.085 118.348 110.994C118.348 110.903 118.385 110.816 118.449 110.752C118.513 110.687 118.6 110.651 118.691 110.651H139.382C139.473 110.651 139.56 110.687 139.624 110.752C139.689 110.816 139.725 110.903 139.725 110.994C139.725 111.085 139.689 111.172 139.624 111.237C139.56 111.301 139.473 111.337 139.382 111.337Z" fill="#EBEBF0"/>
</g>
<defs>
<linearGradient id="paint0_linear" x1="29.7333" y1="37.5208" x2="30.5559" y2="74.2679" gradientUnits="userSpaceOnUse">
<stop stop-color="#68E1FD"/>
<stop offset="0.01" stop-color="#67DDF9"/>
<stop offset="0.12" stop-color="#5CB3CE"/>
<stop offset="0.24" stop-color="#538EA9"/>
<stop offset="0.37" stop-color="#4C718B"/>
<stop offset="0.5" stop-color="#465A73"/>
<stop offset="0.63" stop-color="#424A63"/>
<stop offset="0.79" stop-color="#404059"/>
<stop offset="0.99" stop-color="#3F3D56"/>
</linearGradient>
<linearGradient id="paint1_linear" x1="582.536" y1="360.704" x2="589.544" y2="673.79" gradientUnits="userSpaceOnUse">
<stop stop-color="#68E1FD"/>
<stop offset="0.01" stop-color="#67DDF9"/>
<stop offset="0.12" stop-color="#5CB3CE"/>
<stop offset="0.24" stop-color="#538EA9"/>
<stop offset="0.37" stop-color="#4C718B"/>
<stop offset="0.5" stop-color="#465A73"/>
<stop offset="0.63" stop-color="#424A63"/>
<stop offset="0.79" stop-color="#404059"/>
<stop offset="0.99" stop-color="#3F3D56"/>
</linearGradient>
<linearGradient id="paint2_linear" x1="616.889" y1="360.025" x2="623.897" y2="673.11" gradientUnits="userSpaceOnUse">
<stop stop-color="#68E1FD"/>
<stop offset="0.01" stop-color="#67DDF9"/>
<stop offset="0.12" stop-color="#5CB3CE"/>
<stop offset="0.24" stop-color="#538EA9"/>
<stop offset="0.37" stop-color="#4C718B"/>
<stop offset="0.5" stop-color="#465A73"/>
<stop offset="0.63" stop-color="#424A63"/>
<stop offset="0.79" stop-color="#404059"/>
<stop offset="0.99" stop-color="#3F3D56"/>
</linearGradient>
<linearGradient id="paint3_linear" x1="37.1032" y1="85.3759" x2="49.1929" y2="85.3759" gradientUnits="userSpaceOnUse">
<stop stop-color="#ECC4D7"/>
<stop offset="0.42" stop-color="#EFD4D1"/>
<stop offset="1" stop-color="#F2EAC9"/>
</linearGradient>
<linearGradient id="paint4_linear" x1="60.9581" y1="119.559" x2="32.6398" y2="108.107" gradientUnits="userSpaceOnUse">
<stop offset="0.17" stop-color="#00272E"/>
<stop offset="1" stop-color="#69B9EB" stop-opacity="0"/>
</linearGradient>
<linearGradient id="paint5_linear" x1="2491.2" y1="722.459" x2="2599" y2="708.33" gradientUnits="userSpaceOnUse">
<stop stop-color="#ECC4D7"/>
<stop offset="0.42" stop-color="#EFD4D1"/>
<stop offset="1" stop-color="#F2EAC9"/>
</linearGradient>
<clipPath id="clip0">
<rect width="176" height="176" fill="white"/>
</clipPath>
</defs>
</svg>
