<svg width="153" height="169" viewBox="0 0 153 169" fill="none" xmlns="http://www.w3.org/2000/svg">
<g clip-path="url(#clip0)" filter="url(#filter0_d)">
<path opacity="0.18" d="M145.39 153.613C140.719 154.153 136.042 154.623 131.361 155.024C131.409 155.128 131.465 155.229 131.528 155.326C132.023 156.059 133.022 156.202 133.841 156.545C134.66 156.887 135.433 157.88 134.892 158.584C134.622 158.934 134.149 159.031 133.714 159.104L128.88 159.913C122.995 160.895 116.78 161.849 111.2 159.732C108.893 158.853 108.731 157.529 109.536 156.413C79.6235 157.707 49.5735 156.72 19.6207 155.73C17.1889 155.73 14.4705 155.08 13.8193 152.632C29.2537 145.709 44.2233 145.663 60.9331 145.221L119.698 143.662C120.706 143.635 121.782 143.627 122.641 144.156C123.5 144.684 123.992 145.696 124.713 146.443C126.875 148.692 130.491 148.214 133.601 147.985C138.14 147.657 142.699 148.235 147.011 149.687C147.606 149.886 148.243 150.143 148.546 150.69C149.367 152.187 147.087 153.414 145.39 153.613Z" fill="#1D2741"/>
<path opacity="0.18" d="M66.7992 0.552989C58.9063 2.20074 51.9755 6.8959 45.9525 12.2518C39.9295 17.6077 34.6037 23.7052 28.4807 28.9424C18.9936 37.0652 6.82879 44.3358 4.43203 56.5767C2.50273 66.3985 7.70967 76.2122 7.94476 86.2174C8.09607 93.7847 5.421 101.131 4.83464 108.682C4.2699 116.12 5.96142 124 10.8549 129.639C17.8344 137.686 29.7696 139.571 40.3348 138.056C50.9 136.54 60.8383 132.23 71.2549 129.946C83.8035 127.193 96.8384 127.417 109.625 128.776C117.445 129.609 125.616 130.817 132.968 128.029C139.496 125.553 144.657 119.99 147.143 113.466C149.629 106.942 149.537 99.5882 147.414 92.946C144.476 83.7471 137.956 76.1502 133.803 67.4314C130.269 60.0178 128.499 51.9139 126.553 43.9367C125.264 38.6536 123.784 33.1818 120.214 29.0745C116.121 24.3605 109.946 22.1599 104.456 19.1664C91.2045 11.939 84.1304 -3.06075 66.7992 0.552989Z" fill="#0088FF"/>
<path d="M36.3523 9.84058H83.1986V154.053H36.3523C34.0892 154.053 31.9187 153.156 30.3184 151.558C28.7181 149.961 27.8191 147.795 27.8191 145.536V18.3571C27.8191 16.0984 28.7181 13.9322 30.3184 12.335C31.9187 10.7379 34.0892 9.84058 36.3523 9.84058Z" fill="#0088FF"/>
<path d="M36.3523 9.84058H83.1986V154.053H36.3523C34.0892 154.053 31.9187 153.156 30.3184 151.558C28.7181 149.961 27.8191 147.795 27.8191 145.536V18.3571C27.8191 16.0984 28.7181 13.9322 30.3184 12.335C31.9187 10.7379 34.0892 9.84058 36.3523 9.84058Z" fill="url(#paint0_linear)"/>
<path d="M103.28 9.84058H41.5402C35.9753 9.84058 31.4641 14.343 31.4641 19.897V143.996C31.4641 149.55 35.9753 154.053 41.5402 154.053H103.28C108.845 154.053 113.357 149.55 113.357 143.996V19.897C113.357 14.343 108.845 9.84058 103.28 9.84058Z" fill="#0088FF"/>
<path d="M109.76 18.4976V138.452C109.76 139.121 109.627 139.783 109.37 140.401C109.114 141.019 108.737 141.581 108.263 142.053C107.789 142.526 107.226 142.901 106.607 143.157C105.987 143.413 105.323 143.544 104.653 143.544H40.1621C38.8091 143.544 37.5115 143.007 36.5548 142.052C35.598 141.098 35.0605 139.802 35.0605 138.452V18.4976C35.0605 17.1465 35.5983 15.8508 36.5555 14.8954C37.5128 13.94 38.8111 13.4033 40.1648 13.4033H52.916V15.0052C52.916 16.3642 53.4569 17.6675 54.4197 18.6284C55.3825 19.5893 56.6884 20.1292 58.05 20.1292H86.6652C88.0268 20.1292 89.3327 19.5893 90.2955 18.6284C91.2583 17.6675 91.7992 16.3642 91.7992 15.0052V13.4033H104.65C105.321 13.403 105.985 13.5345 106.605 13.7903C107.225 14.0461 107.788 14.4212 108.262 14.8943C108.737 15.3673 109.113 15.929 109.37 16.5473C109.627 17.1655 109.76 17.8283 109.76 18.4976Z" fill="white"/>
<path d="M79.7966 13.8481H65.0269C64.6493 13.8481 64.3433 14.1536 64.3433 14.5304V14.6518C64.3433 15.0286 64.6493 15.3341 65.0269 15.3341H79.7966C80.1741 15.3341 80.4802 15.0286 80.4802 14.6518V14.5304C80.4802 14.1536 80.1741 13.8481 79.7966 13.8481Z" fill="url(#paint1_linear)"/>
<path d="M104.178 13.4033V121.837C104.178 124.274 103.208 126.611 101.481 128.334C99.7547 130.057 97.4131 131.025 94.9715 131.025H35.0605V18.4976C35.0602 17.8285 35.192 17.1659 35.4484 16.5477C35.7048 15.9295 36.0807 15.3677 36.5548 14.8946C37.0288 14.4215 37.5916 14.0463 38.2111 13.7904C38.8305 13.5345 39.4944 13.403 40.1648 13.4033H52.916V15.0052C52.916 16.3642 53.4569 17.6675 54.4197 18.6284C55.3825 19.5893 56.6884 20.1292 58.05 20.1292H86.6652C88.0268 20.1292 89.3327 19.5893 90.2955 18.6284C91.2583 17.6675 91.7992 16.3642 91.7992 15.0052V13.4033H104.178Z" fill="#EBEBF0"/>
<path d="M125.619 61.2231H49.8086C47.0747 61.2231 44.8584 63.4351 44.8584 66.1637V84.796C44.8584 87.5246 47.0747 89.7366 49.8086 89.7366H125.619C128.353 89.7366 130.569 87.5246 130.569 84.796V66.1637C130.569 63.4351 128.353 61.2231 125.619 61.2231Z" fill="#0088FF"/>
<path d="M125.619 61.2231H49.8086C47.0747 61.2231 44.8584 63.4351 44.8584 66.1637V84.796C44.8584 87.5246 47.0747 89.7366 49.8086 89.7366H125.619C128.353 89.7366 130.569 87.5246 130.569 84.796V66.1637C130.569 63.4351 128.353 61.2231 125.619 61.2231Z" fill="url(#paint2_linear)"/>
<path d="M127.105 59.4404H51.2947C48.5608 59.4404 46.3445 61.6524 46.3445 64.381V83.0133C46.3445 85.7419 48.5608 87.9539 51.2947 87.9539H127.105C129.839 87.9539 132.055 85.7419 132.055 83.0133V64.381C132.055 61.6524 129.839 59.4404 127.105 59.4404Z" fill="white"/>
<path d="M55.5102 27.7314H42.6914V40.5252H55.5102V27.7314Z" fill="white"/>
<path d="M67.0561 64.6697H54.0887C52.6725 64.6697 51.5244 65.8155 51.5244 67.229V80.171C51.5244 81.5844 52.6725 82.7302 54.0887 82.7302H67.0561C68.4723 82.7302 69.6204 81.5844 69.6204 80.171V67.229C69.6204 65.8155 68.4723 64.6697 67.0561 64.6697Z" fill="#EBEBF0"/>
<path d="M55.5102 43.5859H42.6914V56.3797H55.5102V43.5859Z" fill="white"/>
<path d="M55.5102 94.0029H42.6914V106.797H55.5102V94.0029Z" fill="white"/>
<path d="M55.5102 109.858H42.6914V122.651H55.5102V109.858Z" fill="white"/>
<path opacity="0.38" d="M69.6177 77.7681V80.1683C69.6177 80.5044 69.5514 80.8372 69.4225 81.1477C69.2936 81.4582 69.1048 81.7403 68.8666 81.978C68.6285 82.2156 68.3458 82.4042 68.0347 82.5328C67.7236 82.6614 67.3902 82.7276 67.0534 82.7276H54.0833C53.7466 82.7276 53.4131 82.6614 53.102 82.5328C52.7909 82.4042 52.5082 82.2156 52.2701 81.978C52.032 81.7403 51.8431 81.4582 51.7142 81.1477C51.5854 80.8372 51.519 80.5044 51.519 80.1683V77.7681C53.6775 76.3325 56.1241 75.3845 58.6877 74.9904C57.9459 74.5746 57.3637 73.9243 57.0329 73.142C56.702 72.3596 56.6413 71.4897 56.8603 70.6692C57.0792 69.8486 57.5654 69.124 58.2423 68.6095C58.9192 68.095 59.7483 67.8198 60.599 67.8273C61.4498 67.8347 62.274 68.1244 62.9417 68.6507C63.6094 69.1769 64.0828 69.9099 64.2873 70.7342C64.4918 71.5584 64.4158 72.4272 64.0712 73.2036C63.7267 73.98 63.1332 74.62 62.3842 75.0228C66.2185 75.6377 69.6177 77.7681 69.6177 77.7681Z" fill="white"/>
<path d="M125.649 67.8276H76.7406C76.5256 67.8276 76.3194 67.7423 76.1674 67.5906C76.0153 67.4389 75.9299 67.2331 75.9299 67.0185C75.9299 66.8039 76.0153 66.5982 76.1674 66.4464C76.3194 66.2947 76.5256 66.2095 76.7406 66.2095H125.649C125.864 66.2095 126.07 66.2947 126.222 66.4464C126.374 66.5982 126.459 66.8039 126.459 67.0185C126.459 67.2331 126.374 67.4389 126.222 67.5906C126.07 67.7423 125.864 67.8276 125.649 67.8276Z" fill="#EBEBF0"/>
<path d="M106.11 31.0728H60.2928C59.869 31.0728 59.5254 31.4151 59.5254 31.8373C59.5254 32.2596 59.869 32.6019 60.2928 32.6019H106.11C106.533 32.6019 106.877 32.2596 106.877 31.8373C106.877 31.4151 106.533 31.0728 106.11 31.0728Z" fill="white"/>
<path d="M106.107 37.6988H60.2901C60.0866 37.6988 59.8914 37.6181 59.7475 37.4744C59.6036 37.3308 59.5227 37.136 59.5227 36.9329C59.5234 36.7302 59.6046 36.5361 59.7484 36.393C59.8923 36.25 60.087 36.1697 60.2901 36.1697H106.107C106.31 36.1697 106.505 36.25 106.649 36.393C106.792 36.5361 106.874 36.7302 106.874 36.9329C106.874 37.136 106.793 37.3308 106.65 37.4744C106.506 37.6181 106.31 37.6988 106.107 37.6988Z" fill="white"/>
<path d="M106.107 48.0035H60.2901C60.0866 48.0035 59.8914 47.9228 59.7475 47.7791C59.6036 47.6355 59.5227 47.4407 59.5227 47.2376C59.5234 47.0349 59.6046 46.8408 59.7484 46.6977C59.8923 46.5547 60.087 46.4744 60.2901 46.4744H106.107C106.31 46.4744 106.505 46.5547 106.649 46.6977C106.792 46.8408 106.874 47.0349 106.874 47.2376C106.874 47.4407 106.793 47.6355 106.65 47.7791C106.506 47.9228 106.31 48.0035 106.107 48.0035Z" fill="white"/>
<path d="M106.107 52.3318H60.2901C60.0866 52.3318 59.8914 52.2511 59.7475 52.1075C59.6036 51.9639 59.5227 51.7691 59.5227 51.5659C59.5234 51.3633 59.6046 51.1692 59.7484 51.0261C59.8923 50.8831 60.087 50.8027 60.2901 50.8027H106.107C106.31 50.8027 106.505 50.8831 106.649 51.0261C106.792 51.1692 106.874 51.3633 106.874 51.5659C106.874 51.7691 106.793 51.9639 106.65 52.1075C106.506 52.2511 106.31 52.3318 106.107 52.3318Z" fill="white"/>
<path d="M106.107 98.9974H60.2901C60.0866 98.9974 59.8914 98.9167 59.7475 98.773C59.6036 98.6294 59.5227 98.4346 59.5227 98.2315C59.5227 98.0283 59.6036 97.8335 59.7475 97.6899C59.8914 97.5463 60.0866 97.4656 60.2901 97.4656H106.107C106.31 97.4656 106.506 97.5463 106.65 97.6899C106.793 97.8335 106.874 98.0283 106.874 98.2315C106.874 98.4346 106.793 98.6294 106.65 98.773C106.506 98.9167 106.31 98.9974 106.107 98.9974Z" fill="white"/>
<path d="M106.107 103.334H60.2901C60.0866 103.334 59.8914 103.253 59.7475 103.11C59.6036 102.966 59.5227 102.771 59.5227 102.568C59.5227 102.365 59.6036 102.17 59.7475 102.027C59.8914 101.883 60.0866 101.802 60.2901 101.802H106.107C106.31 101.802 106.506 101.883 106.65 102.027C106.793 102.17 106.874 102.365 106.874 102.568C106.874 102.771 106.793 102.966 106.65 103.11C106.506 103.253 106.31 103.334 106.107 103.334Z" fill="white"/>
<path d="M106.107 114.852H60.2901C60.0866 114.852 59.8914 114.771 59.7475 114.628C59.6036 114.484 59.5227 114.289 59.5227 114.086C59.5227 113.883 59.6036 113.688 59.7475 113.545C59.8914 113.401 60.0866 113.32 60.2901 113.32H106.107C106.31 113.32 106.506 113.401 106.65 113.545C106.793 113.688 106.874 113.883 106.874 114.086C106.874 114.289 106.793 114.484 106.65 114.628C106.506 114.771 106.31 114.852 106.107 114.852Z" fill="white"/>
<path d="M106.107 119.199H60.2901C60.0866 119.199 59.8914 119.119 59.7475 118.975C59.6036 118.831 59.5227 118.637 59.5227 118.433C59.5227 118.23 59.6036 118.035 59.7475 117.892C59.8914 117.748 60.0866 117.667 60.2901 117.667H106.107C106.31 117.667 106.506 117.748 106.65 117.892C106.793 118.035 106.874 118.23 106.874 118.433C106.874 118.637 106.793 118.831 106.65 118.975C106.506 119.119 106.31 119.199 106.107 119.199Z" fill="white"/>
<path d="M125.649 73.0297H76.7406C76.5256 73.0297 76.3194 72.9445 76.1674 72.7928C76.0153 72.641 75.9299 72.4352 75.9299 72.2207C75.9299 72.0061 76.0153 71.8003 76.1674 71.6486C76.3194 71.4969 76.5256 71.4116 76.7406 71.4116H125.649C125.864 71.4116 126.07 71.4969 126.222 71.6486C126.374 71.8003 126.459 72.0061 126.459 72.2207C126.459 72.4352 126.374 72.641 126.222 72.7928C126.07 72.9445 125.864 73.0297 125.649 73.0297Z" fill="#EBEBF0"/>
<path d="M125.649 78.2348H76.7406C76.5256 78.2348 76.3194 78.1495 76.1674 77.9978C76.0153 77.8461 75.9299 77.6403 75.9299 77.4257C75.9299 77.2112 76.0153 77.0054 76.1674 76.8537C76.3194 76.7019 76.5256 76.6167 76.7406 76.6167H125.649C125.864 76.6167 126.07 76.7019 126.222 76.8537C126.374 77.0054 126.459 77.2112 126.459 77.4257C126.459 77.6403 126.374 77.8461 126.222 77.9978C126.07 78.1495 125.864 78.2348 125.649 78.2348Z" fill="#EBEBF0"/>
<path d="M116.345 113.496L113.267 135.879C113.137 136.821 113.235 137.78 113.554 138.676L119.053 154.857L122.268 153.867L119.836 137.775C119.785 137.444 119.806 137.105 119.898 136.783L124.076 122.39L125.892 154.857H128.864L131.423 122.8C132.29 117.449 130.704 113.496 130.704 113.496H116.345Z" fill="#3F3D56"/>
<path d="M132.131 93.771V109.143C132.131 111.031 131.823 112.554 129.934 112.554H116.748C114.856 112.554 114.797 111.041 114.783 109.167L114.678 98.7034C114.678 98.7034 111.833 103.776 109.563 103.288C107.293 102.8 100.56 93.531 100.56 93.531L103.91 90.7182L109.563 96.3815C109.563 96.3815 110.468 94.3211 111.789 89.7096C113.111 85.098 117.402 85.0764 117.402 85.0764H128.869C133.009 85.0629 132.131 93.771 132.131 93.771Z" fill="#0088FF"/>
<path d="M132.055 78.2346C132.055 78.2346 136.241 86.8078 136.462 89.7392C136.684 92.6707 132.206 96.6539 132.206 96.6539L128.869 85.0576H132.055V78.2346Z" fill="#0088FF"/>
<path d="M132.055 78.2346C132.055 78.2346 136.241 86.8078 136.462 89.7392C136.684 92.6707 132.206 96.6539 132.206 96.6539L128.869 85.0576H132.055V78.2346Z" fill="url(#paint3_linear)"/>
<path d="M132.206 96.6538C132.206 96.6538 134.936 89.1675 134.638 87.4442C134.341 85.7209 132.055 80.2949 132.055 80.2949V85.0629L128.029 85.1465L132.206 96.6538Z" fill="#0088FF"/>
<path d="M130.71 112.449H116.345V113.496H130.71V112.449Z" fill="#6057F3"/>
<path d="M125.384 74.6265H121.239V85.1467H125.384V74.6265Z" fill="url(#paint4_linear)"/>
<path d="M125.394 73.4722V85.1467H123.208V84.4347C123.208 84.2277 123.168 84.0227 123.088 83.8314C123.009 83.6401 122.892 83.4664 122.745 83.3201C122.598 83.1738 122.424 83.0579 122.232 82.9789C122.041 82.8999 121.835 82.8594 121.628 82.8598H121.503C120.986 82.8619 120.473 82.7621 119.995 82.566C119.516 82.3699 119.081 82.0814 118.715 81.717C118.348 81.3527 118.057 80.9197 117.859 80.4429C117.66 79.9661 117.558 79.4549 117.558 78.9386V73.4722H125.394Z" fill="url(#paint5_linear)"/>
<path d="M118.609 69.9069C119.482 69.4106 120.533 69.3675 121.541 69.3378L123.687 69.2758C124.162 69.2465 124.639 69.2646 125.111 69.3297C125.629 69.417 126.121 69.6192 126.55 69.9214C126.98 70.2236 127.336 70.6181 127.592 71.0759C127.849 71.5337 127.999 72.0431 128.032 72.5665C128.065 73.09 127.98 73.6141 127.783 74.1004C127.699 74.2695 127.645 74.4521 127.624 74.6398C127.624 74.9391 127.818 75.198 127.921 75.4785C128.218 76.274 127.734 77.1424 127.194 77.8004C126.654 78.4585 126.013 79.1273 125.935 79.9741C125.91 80.2438 125.935 80.5674 125.754 80.7831C125.64 80.889 125.493 80.9526 125.337 80.9634C125.182 80.9742 125.028 80.9315 124.9 80.8425C124.65 80.6579 124.446 80.4179 124.305 80.1413C124.327 80.5404 123.765 80.7616 123.414 80.5755C123.248 80.4615 123.108 80.3136 123.004 80.1415C122.899 79.9695 122.833 79.7773 122.808 79.5776C122.76 79.1791 122.637 78.7931 122.446 78.4396C122.263 78.1699 121.971 77.9784 121.874 77.671C121.703 77.1316 122.238 76.5275 122.036 75.9909C121.868 75.554 121.266 75.4245 120.833 75.6106C120.419 75.8363 120.073 76.1688 119.831 76.5734C120.228 76.034 119.901 75.109 119.49 74.6721C118.817 73.9548 117.804 74.5616 117.242 74.0465C116.169 73.0567 117.658 70.4462 118.609 69.9069Z" fill="#3F3D56"/>
<path d="M124.457 85.125C124.457 85.125 122.849 87.2258 120.62 87.2258C118.391 87.2258 111.884 93.5795 111.46 95.5024C111.036 97.4252 109.568 96.3681 109.568 96.3681C109.568 96.3681 110.474 94.3077 111.795 89.6961C113.116 85.0846 117.407 85.063 117.407 85.063H123.233L124.457 85.125Z" fill="#6057F3"/>
<path d="M122.268 153.6L123.403 156.378L118.826 158.535L114.586 158.842C114.586 158.842 113.862 156.062 115.842 155.814C116.998 155.684 118.1 155.258 119.042 154.579L122.268 153.6Z" fill="#222A72"/>
<path d="M125.9 154.857C125.325 155.093 124.826 155.48 124.455 155.976C124.084 156.473 123.855 157.061 123.792 157.678L123.673 158.851H128.869V154.857H125.9Z" fill="#222A72"/>
<path d="M103.91 90.7128L101.724 88.016C101.724 88.016 100.978 85.1385 100.559 86.9211C100.324 87.9216 99.657 89.7312 99.657 89.7312H96.3064C96.3064 89.7312 98.6572 92.2096 99.657 92.6626C100.114 92.8634 100.595 93.0022 101.089 93.0752L103.91 90.7128Z" fill="url(#paint6_linear)"/>
</g>
<defs>
<filter id="filter0_d" x="0" y="0" width="153" height="169" filterUnits="userSpaceOnUse" color-interpolation-filters="sRGB">
<feFlood flood-opacity="0" result="BackgroundImageFix"/>
<feColorMatrix in="SourceAlpha" type="matrix" values="0 0 0 0 0 0 0 0 0 0 0 0 0 0 0 0 0 0 127 0"/>
<feOffset dy="4"/>
<feGaussianBlur stdDeviation="2"/>
<feColorMatrix type="matrix" values="0 0 0 0 0 0 0 0 0 0 0 0 0 0 0 0 0 0 0.25 0"/>
<feBlend mode="normal" in2="BackgroundImageFix" result="effect1_dropShadow"/>
<feBlend mode="normal" in="SourceGraphic" in2="effect1_dropShadow" result="shape"/>
</filter>
<linearGradient id="paint0_linear" x1="-11.7586" y1="177.664" x2="103.77" y2="17.5923" gradientUnits="userSpaceOnUse">
<stop stop-opacity="0"/>
<stop offset="0.85" stop-opacity="0.51"/>
<stop offset="0.99"/>
</linearGradient>
<linearGradient id="paint1_linear" x1="72.3523" y1="10.7468" x2="72.7372" y2="35.8596" gradientUnits="userSpaceOnUse">
<stop stop-color="#183866"/>
<stop offset="1" stop-color="#1A7FC1"/>
</linearGradient>
<linearGradient id="paint2_linear" x1="12315.2" y1="18268.5" x2="14251.7" y2="5739.9" gradientUnits="userSpaceOnUse">
<stop stop-opacity="0"/>
<stop offset="0.85" stop-opacity="0.51"/>
<stop offset="0.99"/>
</linearGradient>
<linearGradient id="paint3_linear" x1="4511.99" y1="7396.76" x2="5915.31" y2="6509.21" gradientUnits="userSpaceOnUse">
<stop stop-opacity="0"/>
<stop offset="0.85" stop-opacity="0.51"/>
<stop offset="0.99"/>
</linearGradient>
<linearGradient id="paint4_linear" x1="122.033" y1="79.9095" x2="128.84" y2="79.785" gradientUnits="userSpaceOnUse">
<stop stop-color="#ECC4D7"/>
<stop offset="0.42" stop-color="#EFD4D1"/>
<stop offset="1" stop-color="#F2EAC9"/>
</linearGradient>
<linearGradient id="paint5_linear" x1="4717.5" y1="3485" x2="4671.26" y2="3501.45" gradientUnits="userSpaceOnUse">
<stop stop-color="#ECC4D7"/>
<stop offset="0.42" stop-color="#EFD4D1"/>
<stop offset="1" stop-color="#F2EAC9"/>
</linearGradient>
<linearGradient id="paint6_linear" x1="3824.78" y1="2327.41" x2="4038.74" y2="2327.41" gradientUnits="userSpaceOnUse">
<stop stop-color="#ECC4D7"/>
<stop offset="0.42" stop-color="#EFD4D1"/>
<stop offset="1" stop-color="#F2EAC9"/>
</linearGradient>
<clipPath id="clip0">
<rect width="145" height="161" fill="white" transform="translate(4)"/>
</clipPath>
</defs>
</svg>
